<?xml version="1.0" encoding="utf-8"?>
<!-- Generator: Adobe Illustrator 16.0.0, SVG Export Plug-In . SVG Version: 6.00 Build 0)  -->
<!DOCTYPE svg PUBLIC "-//W3C//DTD SVG 1.1//EN" "http://www.w3.org/Graphics/SVG/1.1/DTD/svg11.dtd">
<svg version="1.1" id="Calque_1" xmlns="http://www.w3.org/2000/svg" xmlns:xlink="http://www.w3.org/1999/xlink" x="0px" y="0px"
	 width="300px" height="300px" viewBox="0 0 300 300" enable-background="new 0 0 300 300" xml:space="preserve">
<polygon fill-rule="evenodd" clip-rule="evenodd" fill="#FFD138" points="35.135,248.419 13.513,209.567 40.878,163.959 
	67.567,150.5 108.107,76.797 100,59.905 120.27,26.797 163.175,26.797 166.554,32.878 179.085,33.892 286.486,219.793 
	264.526,259.541 171.283,259.541 179.085,273.419 173.675,273.419 166.216,260.243 47.297,258.554 44.932,248.743 "/>
<g>
	<g>
		<path fill-rule="evenodd" clip-rule="evenodd" fill="#FFFFFF" d="M154.294,241.076c-34.04,0-67.436,0-102.144,0
			c38.254-66.238,76.102-131.772,114.451-198.175c4.414,7.341,8.36,13.633,11.933,20.131c0.548,0.998-0.311,3.126-1.054,4.426
			c-19.731,34.517-39.533,68.993-59.32,103.478c-0.662,1.154-1.291,2.327-2.003,3.614
			C128.763,196.54,141.39,218.566,154.294,241.076z"/>
		<path fill-rule="evenodd" clip-rule="evenodd" fill="#FFFFFF" d="M145.275,133.605c12.414-21.21,24.749-42.285,37.443-63.974
			c19.718,34.169,39.171,67.879,59.059,102.343c-10.523,0-20.121,0.002-29.718,0c-13.482-0.003-26.966-0.127-40.444,0.073
			c-3.114,0.047-4.746-0.997-6.222-3.606C158.857,156.885,152.131,145.436,145.275,133.605z"/>
		<path fill-rule="evenodd" clip-rule="evenodd" fill="#FFFFFF" d="M123.703,177.189c24.221,0,47.523-0.024,70.825,0.008
			c15.323,0.021,30.646,0.199,45.97,0.122c3.044-0.016,4.729,0.914,6.238,3.651c6.509,11.796,13.308,23.433,19.983,35.137
			c0.474,0.829,0.806,1.738,1.427,3.101c-1.854,0.132-3.276,0.317-4.699,0.322c-36.81,0.126-73.619,0.262-110.429,0.263
			c-1.882,0-4.713-0.616-5.499-1.916C139.537,204.686,131.889,191.292,123.703,177.189z"/>
		<path fill-rule="evenodd" clip-rule="evenodd" fill="#FFFFFF" d="M142.17,138.807c6.465,11.326,12.438,21.788,18.833,32.99
			c-9.533,0-18.393,0.354-27.204-0.146c-4.536-0.257-7.027-5.8-4.792-9.932C133.083,154.186,137.522,146.848,142.17,138.807z"/>
	</g>
</g>
</svg>
