<?xml version="1.0" encoding="utf-8"?>
<!-- Generator: Adobe Illustrator 16.0.0, SVG Export Plug-In . SVG Version: 6.00 Build 0)  -->
<!DOCTYPE svg PUBLIC "-//W3C//DTD SVG 1.1//EN" "http://www.w3.org/Graphics/SVG/1.1/DTD/svg11.dtd">
<svg version="1.1" id="Calque_1" xmlns="http://www.w3.org/2000/svg" xmlns:xlink="http://www.w3.org/1999/xlink" x="0px" y="0px"
	 width="178.583px" height="42.5px" viewBox="0 0 178.583 42.5" enable-background="new 0 0 178.583 42.5" xml:space="preserve">
<g>
	<path fill="#53BFD0" d="M40.664,31.002c-1.398-0.063-2.325-0.707-2.392-1.833c-0.017-0.287,0.037-0.603,0.137-0.969l1.826-6.189
		c0,0,0.161-0.539,0.14-0.897c-0.006-0.097-0.035-0.191-0.086-0.236l-0.027-0.046c-0.004-0.071,0.158-0.177,0.422-0.192
		c0.504-0.03,1.482,0.273,2.718,1.668c0.207,0.227,0.29,0.439,0.305,0.678c0.013,0.216-0.046,0.437-0.126,0.729
		c-0.409,1.226-1.411,3.833-1.353,4.839c0.015,0.239,0.12,0.401,0.288,0.392l0.023-0.001c1.29-0.148,2.559-3.947,2.619-4.144
		l0.887-0.052c-0.561,1.523-2.121,6.086-5.021,6.256L40.664,31.002z M41.157,19.264l-0.015-0.239
		c-0.049-0.839,0.145-1.234,0.261-2.54c0.031-0.291,0.017-0.53,0.006-0.723c-0.012-0.19-0.019-0.311,0.025-0.386
		c0.066-0.1,0.183-0.154,0.352-0.165c0.934-0.054,3.22,1.207,3.292,2.452c0.009,0.145-0.008,0.266-0.049,0.388
		c-0.348,1.054-0.736,1.389-0.833,2.213c-0.015,0.169-0.2,0.276-0.439,0.291C42.917,20.604,41.214,19.862,41.157,19.264z"/>
	<path fill="#53BFD0" d="M46.166,30.536c-0.886-0.333-1.762-0.931-1.845-1.936l-0.004-0.072c-0.073-1.246,0.505-3.299,0.87-4.45
		c0.947-3.132,1.709-4.5,2.439-7.62c0,0,0.159-0.586,0.139-0.946c-0.006-0.096-0.034-0.167-0.062-0.213l-0.026-0.046
		c-0.005-0.071,0.136-0.152,0.375-0.166c0.527-0.031,1.505,0.249,2.741,1.644c0.205,0.228,0.313,0.438,0.328,0.677
		c0.013,0.216-0.048,0.436-0.15,0.73c-1.09,3.165-2.009,5.118-2.825,8.436c-0.251,1.049-0.354,1.776-0.328,2.207
		c0.022,0.384,0.152,0.545,0.319,0.535c0.671-0.04,2.168-2.411,2.906-4.594l1.102-0.064c-0.952,2.219-1.912,5.954-4.571,6.109
		C47.166,30.79,46.681,30.722,46.166,30.536z"/>
	<path fill="#53BFD0" d="M52.25,30.18c-0.885-0.332-1.761-0.931-1.845-1.935l-0.004-0.072c-0.072-1.246,0.505-3.299,0.871-4.451
		c0.946-3.132,1.708-4.5,2.439-7.62c0,0,0.159-0.586,0.138-0.946c-0.006-0.096-0.034-0.167-0.061-0.213l-0.027-0.046
		c-0.004-0.071,0.136-0.152,0.376-0.166c0.526-0.031,1.504,0.249,2.74,1.644c0.205,0.228,0.313,0.438,0.328,0.677
		c0.013,0.216-0.047,0.436-0.149,0.73c-1.091,3.165-2.01,5.118-2.825,8.437c-0.252,1.048-0.354,1.775-0.329,2.206
		c0.022,0.384,0.152,0.545,0.32,0.535c0.671-0.039,2.167-2.411,2.905-4.594l1.103-0.064c-0.952,2.219-1.913,5.954-4.572,6.109
		C53.251,30.435,52.766,30.367,52.25,30.18z"/>
	<path fill="#53BFD0" d="M63.847,29.912c-1.352-0.089-1.666-0.528-1.731-1.654l-0.019-0.719c-0.67,1.288-1.614,2.402-2.788,2.47
		c-1.847,0.083-2.514-1.031-2.6-2.518c-0.125-2.133,0.932-5.031,1.293-6.254c0,0,0.158-0.586,0.139-0.921
		c-0.005-0.096-0.033-0.167-0.06-0.213l-0.025-0.022c-0.003-0.049,0.115-0.079,0.307-0.09c0.767-0.045,2.874,0.216,3.184,0.583
		c0.156,0.208,0.239,0.395,0.25,0.587c0.013,0.215-0.045,0.459-0.147,0.753c-0.203,0.637-1.906,4.006-1.824,5.419
		c0.021,0.337,0.13,0.569,0.421,0.601l0.023-0.001c0.479-0.028,1.983-3.097,2.229-3.832l0.921-3.18c0,0,0.16-0.538,0.14-0.897
		c-0.006-0.096-0.035-0.191-0.086-0.236l-0.025-0.022c-0.004-0.072,0.158-0.179,0.422-0.194c0.503-0.029,1.481,0.251,2.717,1.646
		c0.205,0.229,0.313,0.438,0.328,0.678c0.012,0.216-0.047,0.435-0.15,0.73c-0.433,1.228-1.465,3.74-1.41,4.674
		c0.013,0.216,0.094,0.355,0.261,0.345l0.024-0.001c1.123-0.113,2.728-3.934,2.728-3.934l1.054-0.062c0,0-2.288,6.096-5.308,6.272
		L63.847,29.912z"/>
	<path fill="#53BFD0" d="M75.053,20.915c-1.126,0.066-3.07,1.767-3.59,2.758c-0.087,0.149-0.147,0.346-0.144,0.418l0.002,0.023
		c0.04,0.694,3.826,1.292,3.914,2.8l0.002,0.024c0.028,0.913-0.035,2.719-3.629,2.929l-0.479,0.028
		c-2.33,0.04-3.078-0.83-3.133-1.765c-0.056-0.958,0.65-2.034,1.14-2.303l0.002,0.024c0.053,0.91,1.366,1.17,2.444,1.107
		c0.768-0.045,1.404-0.25,1.389-0.514l-0.003-0.049c-0.285-0.776-4.255-0.809-4.569-3.315l-0.007-0.12
		c-0.11-1.893,2.939-4.427,4.641-4.526c0.216-0.013,0.41,0.024,0.582,0.086c1.502,0.61,2.218,1.746,2.265,2.152l0.006,0.096
		c0.019,0.312-0.089,0.534-0.089,0.534l-0.078-0.116C75.562,20.982,75.341,20.898,75.053,20.915z"/>
	<path fill="#53BFD0" d="M78.644,28.905c-1-0.255-2.461-0.987-2.555-2.159l-0.005-0.096c-0.115-1.966,1.273-5.772,1.949-7.785
		l-0.405,0.048c-1.894,0.11-3.969-0.85-4.062-2.431c-0.029-0.503,0.153-1.091,0.621-1.72c0.245-0.327,0.382-0.456,0.431-0.458
		c0.023-0.001,0.025,0.023,0.026,0.046c0.007,0.12-0.053,0.34-0.071,0.438l-0.032,0.267c0.055,0.934,1.759,1.7,3.963,1.571
		l0.239-0.014c0.179-0.659,0.357-1.295,0.488-1.928c0,0,0.159-0.586,0.14-0.921c-0.006-0.097-0.034-0.167-0.062-0.214l-0.026-0.046
		c-0.004-0.072,0.134-0.175,0.397-0.191c0.503-0.029,1.482,0.274,2.718,1.668c0.23,0.228,0.316,0.463,0.328,0.678
		c0.013,0.216-0.045,0.459-0.149,0.73c0.55-0.056,1.075-0.111,1.65-0.145l0.623-0.036c0.194,0.037,0.283,0.319,0.305,0.68
		c0.04,0.695-0.17,1.621-0.386,1.634c-0.023,0.001-0.073-0.021-0.101-0.067c-0.132-0.208-0.593-0.278-1.24-0.24
		c-0.455,0.027-1.003,0.107-1.574,0.211c-0.721,2.063-1.414,4.194-1.939,6.317c-0.213,0.877-0.272,1.506-0.247,1.938
		c0.033,0.574,0.239,0.804,0.551,0.785c0.91-0.053,2.719-2.443,3.098-4.604l0.981-0.057c-0.629,2.392-1.641,6.082-4.42,6.244
		C79.496,29.071,79.084,29.022,78.644,28.905z"/>
	<path fill="#53BFD0" d="M88.908,28.449c-1.374-0.063-2.3-0.683-2.365-1.809c-0.018-0.288,0.036-0.603,0.136-0.97l1.259-4.376
		c-0.896,1.542-2.243,2.342-3.154,2.396c-0.144,0.008-0.287,0.017-0.41-0.024c-0.854-0.215-1.162-0.966-1.211-1.805
		c-0.052-0.887,0.18-1.862,0.432-2.477c0.188-0.493,0.224-0.711,0.218-0.807c-0.006-0.097-0.029-0.095-0.054-0.094l-0.048,0.003
		c-0.023,0.001-0.023,0.001-0.025-0.022c0.014-0.169,0.181-0.203,0.323-0.235l0.311-0.042c1.03-0.06,2.883,0.384,2.938,0.911
		c0.004,0.072-0.399,0.984-0.377,1.367c0.007,0.12,0.06,0.189,0.155,0.184c0.072-0.004,0.166-0.034,0.305-0.138
		c0.439-0.29,0.782-1.007,0.848-1.131c0.086-0.174,0.227-0.229,0.395-0.239c0.814-0.047,2.414,1.397,2.721,1.716
		c0.207,0.252,0.316,0.461,0.33,0.702c0.013,0.216-0.047,0.436-0.151,0.707c-0.388,1.177-1.147,3.001-1.101,3.791
		c0.015,0.264,0.119,0.401,0.335,0.389l0.023-0.001c1.123-0.114,2.449-4.182,2.449-4.182l1.006-0.059
		c0.006,0.504-1.977,6.078-4.972,6.253L88.908,28.449z"/>
	<path fill="#53BFD0" d="M100.765,27.708c-1.211-0.145-1.993-0.772-2.053-1.803c-0.01-0.168,0.004-0.337,0.041-0.532
		c-0.75,1.173-1.714,2.36-2.673,2.416c-0.144,0.009-0.313-0.005-0.46-0.069c-2.158-0.716-2.491-3.125-2.55-3.722l-0.003-0.048
		c-0.129-2.204,2.966-6.04,4.903-6.201l0.049-0.003c0.814-0.047,1.838,0.614,2.574,1.269c0.081-0.246,0.241-0.808,0.22-1.167
		c-0.005-0.096-0.035-0.191-0.086-0.236l-0.025-0.022c-0.004-0.072,0.158-0.179,0.422-0.194c0.503-0.029,1.481,0.251,2.717,1.646
		c0.205,0.229,0.29,0.439,0.305,0.68c0.012,0.216-0.048,0.435-0.127,0.729c-0.433,1.228-1.519,4.055-1.458,5.085
		c0.014,0.24,0.095,0.379,0.263,0.369l0.023-0.001c1.122-0.137,2.487-4.352,2.487-4.352l1.054-0.062
		c-0.584,2.343-2.217,6.092-4.996,6.254C101.201,27.755,100.983,27.744,100.765,27.708z M99.413,23.076l0.801-2.74
		c-0.28-0.272-0.609-0.566-0.875-0.574c-0.526,0.031-2.142,3.66-2.084,4.642c0.01,0.168,0.063,0.261,0.183,0.254l0.023-0.001
		C98.083,24.62,99.006,23.532,99.413,23.076z"/>
	<path fill="#53BFD0" d="M107.204,27.237c-1.001-0.255-2.462-0.987-2.555-2.16l-0.006-0.096c-0.114-1.966,1.274-5.772,1.95-7.784
		l-0.406,0.048c-1.893,0.111-3.968-0.85-4.061-2.431c-0.029-0.503,0.152-1.091,0.621-1.72c0.245-0.327,0.382-0.456,0.431-0.458
		c0.023-0.001,0.024,0.023,0.026,0.046c0.007,0.12-0.053,0.34-0.071,0.438l-0.032,0.266c0.055,0.934,1.758,1.701,3.963,1.572
		l0.239-0.014c0.178-0.659,0.356-1.295,0.488-1.928c0,0,0.158-0.586,0.139-0.921c-0.005-0.097-0.034-0.167-0.061-0.214l-0.026-0.046
		c-0.005-0.072,0.134-0.176,0.397-0.191c0.503-0.029,1.482,0.274,2.718,1.667c0.229,0.228,0.316,0.464,0.328,0.679
		c0.013,0.216-0.045,0.459-0.15,0.73c0.55-0.056,1.077-0.111,1.651-0.145l0.623-0.036c0.194,0.037,0.283,0.319,0.305,0.68
		c0.04,0.695-0.171,1.621-0.386,1.634c-0.024,0.001-0.074-0.021-0.101-0.067c-0.133-0.209-0.593-0.278-1.24-0.24
		c-0.455,0.027-1.004,0.107-1.574,0.211c-0.721,2.063-1.414,4.194-1.939,6.317c-0.214,0.878-0.272,1.506-0.247,1.938
		c0.033,0.574,0.239,0.803,0.551,0.785c0.91-0.053,2.719-2.443,3.097-4.604l0.982-0.057c-0.63,2.392-1.641,6.082-4.42,6.244
		C108.055,27.403,107.643,27.354,107.204,27.237z"/>
	<path fill="#53BFD0" d="M113.425,26.753c-1.397-0.063-2.325-0.707-2.391-1.833c-0.017-0.287,0.037-0.603,0.136-0.969l1.827-6.189
		c0,0,0.16-0.539,0.14-0.897c-0.006-0.097-0.035-0.191-0.086-0.236l-0.027-0.046c-0.004-0.071,0.158-0.177,0.422-0.192
		c0.503-0.03,1.482,0.273,2.718,1.668c0.206,0.227,0.29,0.439,0.305,0.678c0.013,0.216-0.047,0.437-0.126,0.729
		c-0.409,1.226-1.411,3.833-1.353,4.839c0.014,0.239,0.12,0.401,0.287,0.392l0.024-0.001c1.289-0.148,2.558-3.947,2.619-4.144
		l0.887-0.052c-0.561,1.523-2.121,6.086-5.021,6.256L113.425,26.753z M113.918,15.015l-0.014-0.239
		c-0.049-0.839,0.144-1.234,0.26-2.54c0.031-0.291,0.018-0.53,0.006-0.723c-0.011-0.19-0.018-0.311,0.025-0.386
		c0.067-0.1,0.184-0.154,0.352-0.165c0.935-0.054,3.22,1.207,3.293,2.452c0.009,0.145-0.009,0.266-0.05,0.388
		c-0.348,1.054-0.736,1.389-0.833,2.213c-0.014,0.169-0.199,0.276-0.439,0.291C115.68,16.355,113.977,15.613,113.918,15.015z"/>
	<path fill="#53BFD0" d="M120.081,26.676c-1.895-0.321-2.724-1.763-2.819-3.393c-0.138-2.372,1.217-5.121,3.028-5.371
		c0.536-1.113,1.462-1.744,2.588-1.81c0.287-0.017,0.577,0.014,0.894,0.068c1.677,0.311,2.463,1.828,2.56,3.481
		c0.03,0.527-0.009,1.082-0.124,1.593c0.884-0.508,1.505-1.001,1.505-1.001l1.03-0.06c0,0-1.202,1.249-2.878,2.188
		c-0.773,1.993-2.687,4.221-4.963,4.354C120.637,26.741,120.373,26.732,120.081,26.676z M122.436,23.366
		c-0.675-0.009-1.237-0.192-1.699-0.695c-0.061,0.629-0.077,1.159-0.052,1.59c0.047,0.815,0.242,1.261,0.529,1.244
		C121.526,25.487,121.968,24.836,122.436,23.366z M123.144,18.612c-0.03-0.504-0.123-0.859-0.344-0.941l-0.098-0.019
		c-0.239,0.014-0.557,0.344-0.817,0.816c0.104,0.139,0.192,0.423,0.204,0.613c0.006,0.097-0.015,0.169-0.035,0.22
		c-0.05-0.021-0.123-0.042-0.171-0.039c-0.384,0.022-0.657,0.688-0.616,1.383c0.043,0.742,0.45,1.536,1.467,1.645
		C122.849,21.802,123.213,19.811,123.144,18.612z"/>
	<path fill="#53BFD0" d="M135.792,26.481c-2.007-0.196-2.69-1.19-2.768-2.508c-0.042-0.719,0.104-1.545,0.319-2.374
		c0.276-1.028,0.373-1.417,0.363-1.585c-0.004-0.071-0.029-0.093-0.078-0.115l-0.024,0.001c-0.312,0.018-2.779,2.229-2.651,4.41
		l0.011,0.191c0.137,0.69,0.404,1.155,0.556,1.266c0.1,0.067,0.128,0.137,0.131,0.185c0.005,0.096-0.137,0.128-0.137,0.128
		l-0.191,0.011c-1.15,0.067-3.957-0.634-4.08-2.334l-0.004-0.072c-0.096-1.629,1.034-4.941,1.539-6.582c0,0,0.136-0.561,0.116-0.896
		c-0.006-0.096-0.012-0.192-0.063-0.237l-0.026-0.046c-0.003-0.048,0.135-0.153,0.398-0.168c0.527-0.031,1.481,0.251,2.717,1.646
		c0.206,0.229,0.316,0.462,0.33,0.702c0.023,0.407-0.192,0.828-0.359,1.271c1.275-2.046,2.828-3.868,3.451-3.904
		c0,0,1.881,1.742,2.712,1.981c0.024-0.001,0.051,0.045,0.054,0.093c0.035,0.599-1.645,3.943-1.537,5.788
		c0.023,0.408,0.139,0.738,0.367,0.941c0.025,0.023,0.049,0.021,0.073,0.02c0.527-0.031,2.038-4.207,2.249-4.724l1.055-0.062
		c-0.204,0.637-2.055,6.829-4.379,6.964L135.792,26.481z"/>
</g>
</svg>
