<?xml version="1.0" encoding="utf-8"?>
<!-- Generator: Adobe Illustrator 16.0.0, SVG Export Plug-In . SVG Version: 6.00 Build 0)  -->
<!DOCTYPE svg PUBLIC "-//W3C//DTD SVG 1.1//EN" "http://www.w3.org/Graphics/SVG/1.1/DTD/svg11.dtd">
<svg version="1.1" id="Calque_1" xmlns="http://www.w3.org/2000/svg" xmlns:xlink="http://www.w3.org/1999/xlink" x="0px" y="0px"
	 width="512px" height="512px" viewBox="0 0 512 512" enable-background="new 0 0 512 512" xml:space="preserve">
<path fill="#FFD96E" d="M501.699,133.766H0v253.953c0,35.527,28.801,64.332,64.328,64.332h437.371
	c5.688,0,10.301-4.613,10.301-10.305v-297.68C512,138.375,507.387,133.766,501.699,133.766z"/>
<path fill="#EDAF00" d="M512,144.07v297.68c0,5.688-4.613,10.301-10.301,10.301h-25.973c5.688,0,10.301-4.613,10.301-10.301V144.07
	c0-5.699-4.613-10.305-10.301-10.305h25.973C507.387,133.766,512,138.371,512,144.07z"/>
<g>
	<path fill="#EDAF00" d="M90.508,309.008c0,5.691-4.609,10.301-10.301,10.301H64.324C28.801,319.309,0,348.109,0,383.637V65.328
		C0,29.801,28.801,1,64.328,1h15.879c5.688,0,10.301,4.613,10.301,10.301V309.008z"/>
	<path fill="#EDAF00" d="M463.961,267.02c0-32.762-26.652-59.41-59.41-59.41c-31.563,0-57.445,24.738-59.297,55.844h-35.566
		c-4.266,0-7.723,3.457-7.723,7.727v88.258c0,4.266,3.457,7.727,7.723,7.727h88.258c4.27,0,7.727-3.461,7.727-7.727v-33.035
		C437.914,325.801,463.961,299.402,463.961,267.02z M404.551,223.059c24.238,0,43.957,19.723,43.957,43.961
		c0,23.863-19.113,43.332-42.836,43.93v-39.77c0-4.27-3.457-7.727-7.727-7.727h-37.199
		C362.57,240.879,381.512,223.059,404.551,223.059z M390.219,308.57c-13.531-4.684-24.082-15.793-27.984-29.664h27.984V308.57z
		 M317.414,351.711v-72.805h28.918c4.57,22.418,21.813,40.281,43.887,45.77v27.035H317.414z"/>
	<path fill="#EDAF00" d="M450.438,331.766H433.25c-4.266,0-7.727,3.461-7.727,7.727c0,4.27,3.461,7.727,7.727,7.727h17.188
		c4.27,0,7.727-3.457,7.727-7.727C458.164,335.227,454.707,331.766,450.438,331.766z"/>
	<path fill="#EDAF00" d="M450.438,351.711H433.25c-4.266,0-7.727,3.457-7.727,7.727c0,4.266,3.461,7.723,7.727,7.723h17.188
		c4.27,0,7.727-3.457,7.727-7.723C458.164,355.168,454.707,351.711,450.438,351.711z"/>
	<path fill="#EDAF00" d="M133.406,204.531h12.363c4.266,0,7.727-3.461,7.727-7.727s-3.461-7.727-7.727-7.727h-12.363
		c-4.266,0-7.723,3.461-7.723,7.727S129.141,204.531,133.406,204.531z"/>
	<path fill="#EDAF00" d="M133.406,227.039h59.645c4.266,0,7.727-3.457,7.727-7.727c0-4.266-3.461-7.723-7.727-7.723h-59.645
		c-4.266,0-7.723,3.457-7.723,7.723C125.684,223.582,129.141,227.039,133.406,227.039z"/>
	<path fill="#EDAF00" d="M180.688,204.531h12.363c4.266,0,7.727-3.461,7.727-7.727s-3.461-7.727-7.727-7.727h-12.363
		c-4.266,0-7.723,3.461-7.723,7.727S176.422,204.531,180.688,204.531z"/>
	<path fill="#EDAF00" d="M227.969,204.531h12.363c4.266,0,7.727-3.461,7.727-7.727s-3.461-7.727-7.727-7.727h-12.363
		c-4.266,0-7.727,3.461-7.727,7.727S223.703,204.531,227.969,204.531z"/>
	<path fill="#EDAF00" d="M133.406,249.383h59.645c4.266,0,7.727-3.461,7.727-7.727c0-4.27-3.461-7.727-7.727-7.727h-59.645
		c-4.266,0-7.723,3.457-7.723,7.727C125.684,245.922,129.141,249.383,133.406,249.383z"/>
	<path fill="#EDAF00" d="M133.406,271.723h94.563c4.266,0,7.727-3.461,7.727-7.727s-3.461-7.727-7.727-7.727h-94.563
		c-4.266,0-7.723,3.461-7.723,7.727S129.141,271.723,133.406,271.723z"/>
	<path fill="#EDAF00" d="M133.406,294.063h106.926c4.266,0,7.727-3.457,7.727-7.727c0-4.266-3.461-7.727-7.727-7.727H133.406
		c-4.266,0-7.723,3.461-7.723,7.727C125.684,290.605,129.141,294.063,133.406,294.063z"/>
	<path fill="#EDAF00" d="M154.699,314.605H133.41c-4.27,0-7.727,3.457-7.727,7.727v21.289c0,4.27,3.457,7.727,7.727,7.727h21.289
		c4.266,0,7.727-3.461,7.727-7.727v-21.289C162.426,318.063,158.965,314.605,154.699,314.605z M146.973,335.895h-5.84v-5.836h5.84
		V335.895z"/>
	<path fill="#EDAF00" d="M205.781,314.605h-21.289c-4.266,0-7.727,3.457-7.727,7.727v21.289c0,4.27,3.461,7.727,7.727,7.727h21.289
		c4.27,0,7.727-3.461,7.727-7.727v-21.289C213.508,318.063,210.051,314.605,205.781,314.605z M198.055,335.895h-5.836v-5.836h5.836
		V335.895z"/>
	<path fill="#EDAF00" d="M256.867,314.605h-21.293c-4.266,0-7.723,3.457-7.723,7.727v21.289c0,4.27,3.457,7.727,7.723,7.727h21.293
		c4.266,0,7.727-3.461,7.727-7.727v-21.289C264.594,318.063,261.133,314.605,256.867,314.605z M249.141,335.895h-5.836v-5.836h5.836
		V335.895z"/>
	<path fill="#EDAF00" d="M154.699,368.859H133.41c-4.27,0-7.727,3.461-7.727,7.727v21.293c0,4.266,3.457,7.727,7.727,7.727h21.289
		c4.266,0,7.727-3.461,7.727-7.727v-21.293C162.426,372.32,158.965,368.859,154.699,368.859z M146.973,390.152h-5.84v-5.84h5.84
		V390.152z"/>
	<path fill="#EDAF00" d="M205.781,368.859h-21.289c-4.266,0-7.727,3.461-7.727,7.727v21.293c0,4.266,3.461,7.727,7.727,7.727h21.289
		c4.27,0,7.727-3.461,7.727-7.727v-21.293C213.508,372.32,210.051,368.859,205.781,368.859z M198.055,390.152h-5.836v-5.84h5.836
		V390.152z"/>
	<path fill="#EDAF00" d="M256.867,368.859h-21.293c-4.266,0-7.723,3.461-7.723,7.727v21.293c0,4.266,3.457,7.727,7.723,7.727h21.293
		c4.266,0,7.727-3.461,7.727-7.727v-21.293C264.594,372.32,261.133,368.859,256.867,368.859z M249.141,390.152h-5.836v-5.84h5.836
		V390.152z"/>
</g>
<path fill="#4E7693" d="M322.426,216.262l-33.172,16.492c-3.703,1.84-7.746-1.797-6.313-5.672l12.848-34.746L322.426,216.262z"/>
<path fill="#EDAF00" d="M329.559,214.223L462.699,66.004c2.809-3.121,2.555-7.93-0.574-10.742L440.938,36.23
	c-3.129-2.809-7.934-2.547-10.742,0.578L297.055,185.027c-2.809,3.129-2.551,7.93,0.578,10.742l21.184,19.031
	C321.949,217.609,326.75,217.355,329.559,214.223z"/>
<path fill="#D19500" d="M329.559,214.223L462.699,66.004c2.809-3.121,2.555-7.93-0.574-10.742l-10.594-9.516L308.227,205.285
	l10.59,9.516C321.949,217.609,326.75,217.355,329.559,214.223z"/>
<path fill="#FD82AC" d="M448.277,82.059l14.422-16.051c2.805-3.125,2.555-7.934-0.578-10.742l-21.184-19.031
	c-3.129-2.813-7.938-2.551-10.742,0.574l-14.422,16.055L448.277,82.059z"/>
</svg>
