<?xml version="1.0" encoding="utf-8"?>
<!-- Generator: Adobe Illustrator 16.0.0, SVG Export Plug-In . SVG Version: 6.00 Build 0)  -->
<!DOCTYPE svg PUBLIC "-//W3C//DTD SVG 1.1//EN" "http://www.w3.org/Graphics/SVG/1.1/DTD/svg11.dtd">
<svg version="1.1" id="Calque_1" xmlns="http://www.w3.org/2000/svg" xmlns:xlink="http://www.w3.org/1999/xlink" x="0px" y="0px"
	 width="512px" height="512px" viewBox="0 0 512 512" enable-background="new 0 0 512 512" xml:space="preserve">
<path fill="#EEF1EB" d="M0,232.918h43.605v52.328H0V232.918z"/>
<path fill="#345A84" d="M104.657,311.41h43.605v34.957c0,9.594-7.777,17.371-17.371,17.371h-26.234V311.41z"/>
<path fill="#FED136" d="M279.082,102.102c0,28.898-23.429,52.328-52.328,52.328s-52.328-23.43-52.328-52.328
	c0-28.902,23.43-52.328,52.328-52.328S279.082,73.199,279.082,102.102z"/>
<path fill="#EEF1EB" d="M169.161,226.543l162.25-72.113v209.309l-162.25-72.117V226.543z"/>
<path fill="#A9BFD1" d="M61.051,311.41h52.324v95.934H61.051V311.41z"/>
<path fill="#D1E3EE" d="M444.785,6.168l-69.77,69.77v61.047h61.047l69.773-69.77L444.785,6.168z M414.262,110.82
	c-7.227,0-13.082-5.855-13.082-13.082c0-7.223,5.855-13.082,13.082-13.082c7.223,0,13.082,5.859,13.082,13.082
	C427.344,104.965,421.484,110.82,414.262,110.82z"/>
<path fill="#DD1C4B" d="M59.934,198.035h89.445c13.832,0,25.047,11.215,25.047,25.047v72.004c0,13.832-11.215,25.047-25.047,25.047
	H59.934c-13.836,0-25.047-11.215-25.047-25.047v-72.004C34.887,209.25,46.098,198.035,59.934,198.035z"/>
<path fill="#D1E3EE" d="M331.41,154.43l-52.328,23.258V340.48l52.328,23.258V154.43z"/>
<path fill="#D1E3EE" d="M357.828,408.227l61.668-61.668l86.336,86.336l-61.668,61.668L357.828,408.227z"/>
<path fill="#A9BFD1" d="M419.504,346.547l6.164,80.176l80.168,6.168L419.504,346.547z"/>
<g>
	<path fill="#FED136" d="M479.672,206.754c0,14.453-11.715,26.164-26.164,26.164s-26.164-11.711-26.164-26.164
		c0-14.449,11.715-26.16,26.164-26.16S479.672,192.305,479.672,206.754z"/>
	<path fill="#FED136" d="M444.953,241.641h17.117c14.539,0.004,26.32,11.793,26.32,26.328v43.441h-69.77v-43.441
		C418.621,253.43,430.41,241.641,444.953,241.641z"/>
	<path fill="#FED136" d="M409.902,215.477c0,9.633-7.813,17.441-17.445,17.441s-17.441-7.809-17.441-17.441
		s7.809-17.441,17.441-17.441S409.902,205.844,409.902,215.477z"/>
	<path fill="#FED136" d="M392.457,241.641c14.449,0,26.164,11.715,26.164,26.164v26.164h-52.328v-26.164
		C366.293,253.355,378.008,241.641,392.457,241.641z"/>
</g>
<path fill="#D1E3EE" d="M328.852,12.332L316.52,0l-53.277,53.262c-27.101-20.281-65.515-14.754-85.796,12.348
	c-20.281,27.105-14.754,65.516,12.352,85.797c27.102,20.285,65.512,14.754,85.796-12.348c16.293-21.773,16.293-51.676,0-73.449
	L328.852,12.332z M226.754,145.707c-24.082,0-43.605-19.523-43.605-43.605c0-24.086,19.523-43.609,43.605-43.609
	s43.605,19.523,43.605,43.609C270.332,126.172,250.825,145.676,226.754,145.707z"/>
<path fill="#FED136" d="M235.477,363.738H200.59l-52.328,52.328L244.196,512l69.773-69.77L235.477,363.738z M194.426,427.344
	l34.883-34.887l12.332,12.332l-34.883,34.887L194.426,427.344z M232.918,465.84l-12.332-12.332l34.887-34.887l12.332,12.332
	L232.918,465.84z"/>
</svg>
