<?xml version="1.0" encoding="utf-8"?>
<!-- Generator: Adobe Illustrator 16.0.0, SVG Export Plug-In . SVG Version: 6.00 Build 0)  -->
<!DOCTYPE svg PUBLIC "-//W3C//DTD SVG 1.1//EN" "http://www.w3.org/Graphics/SVG/1.1/DTD/svg11.dtd">
<svg version="1.1" id="Calque_1" xmlns="http://www.w3.org/2000/svg" xmlns:xlink="http://www.w3.org/1999/xlink" x="0px" y="0px"
	 width="512px" height="512px" viewBox="0 0 512 512" enable-background="new 0 0 512 512" xml:space="preserve">
<path fill="#FED136" d="M487.25,231.25c0,127.719-103.535,231.254-231.25,231.254S24.75,358.969,24.75,231.25
	C24.75,103.535,128.285,0,256,0S487.25,103.535,487.25,231.25z"/>
<path fill="#DBA100" d="M487.25,231.25c0,127.719-103.531,231.254-231.25,231.254c-23.645,0-46.469-3.551-67.957-10.148
	c9.922,1.297,20.035,1.969,30.316,1.969c127.719,0,231.254-103.535,231.254-231.25c0-104.07-68.742-192.074-163.293-221.105
	C399.711,16.82,487.25,113.816,487.25,231.25z"/>
<path fill="#DBA100" d="M376.551,343.293c22.254-52.973,28.109-113.031,15.859-171.895c-3.754-18.066-9.098-35.484-15.965-52.16
	c10.281-2.152,20.367-4.598,30.234-7.332c10.965-3.039,25.172-7.27,38.828-13.23c-3.055-4.352-6.25-8.598-9.602-12.723
	c-11.727,4.824-23.813,8.402-33.359,11.055c-10.594,2.938-21.441,5.527-32.535,7.754c-6.488-13.582-14.035-26.617-22.637-39.043
	c-17.129-24.777-37.742-46.145-61.492-63.801h-0.008c-3.879-0.504-7.777-0.906-11.715-1.215c-5.734-0.445-11.539-0.684-17.387-0.691
	h-0.012C256.742,0,256.73,0,256.711,0h-1.422c-0.023,0-0.031,0-0.055,0.012h-0.008c-5.848,0.008-11.652,0.246-17.387,0.691
	c-3.938,0.309-7.836,0.711-11.715,1.215h-0.012c-23.746,17.656-44.359,39.023-61.492,63.801c-8.773,12.684-16.469,26-23.035,39.891
	c-22.047-4.344-44.23-10.602-65.512-19.637c-3.344,4.125-6.539,8.363-9.582,12.715c22.359,9.848,45.621,16.676,68.711,21.418
	c-6.703,16.41-11.922,33.547-15.613,51.293c-12.188,58.543-6.453,118.262,15.5,171.031c-23.059,4.73-46.273,11.559-68.598,21.387
	c3.043,4.352,6.238,8.59,9.578,12.715c21.297-9.035,43.488-15.305,65.535-19.637c7.105,14.664,15.52,28.699,25.215,41.922
	c17.777,24.254,38.152,45.25,59.883,61.852c3.723,0.465,7.477,0.844,11.25,1.145c5.691,0.434,11.457,0.668,17.262,0.68h0.012
	c0.02,0.012,0.031,0.012,0.051,0.012h1.445c0.02,0,0.031,0,0.051-0.012h0.012c5.805-0.008,11.57-0.246,17.262-0.68
	c3.773-0.301,7.527-0.68,11.25-1.145c21.727-16.605,42.105-37.598,59.883-61.852c9.508-12.973,17.789-26.719,24.813-41.086
	c11.094,2.238,21.953,4.828,32.555,7.766c9.547,2.648,21.633,6.23,33.359,11.055c3.352-4.125,6.547-8.371,9.602-12.727
	c-13.652-5.957-27.863-10.188-38.824-13.23C396.844,347.859,386.801,345.426,376.551,343.293z M377.27,174.555
	c11.84,56.891,5.848,114.898-16.25,165.738c-14.449-2.559-29.277-4.551-44.434-5.973c8.238-49.406,10.383-104.586,5.781-158.754
	c-1.379-16.305-3.348-32.145-5.867-47.375c15.16-1.422,29.988-3.414,44.438-5.973C368.02,138.895,373.488,156.375,377.27,174.555z
	 M256,461.43c-11.313-16.777-22.027-40.652-31.164-69.527c-4.328-13.664-8.043-28.266-11.125-43.578
	c12.352-0.668,24.223-0.988,35.391-1.145c16.738-0.227,33.141,0.176,49.18,1.219c-3.086,15.281-6.797,29.863-11.117,43.504
	C278.027,420.777,267.313,444.652,256,461.43z M248.887,331.711c-11.965,0.168-24.719,0.516-38.023,1.281
	c-8.199-48.406-10.352-102.723-5.824-156.117c1.391-16.344,3.371-32.184,5.906-47.363c13.273,0.762,26.008,1.113,37.941,1.277
	c3.145,0.043,6.277,0.063,9.391,0.063c14.512,0,28.773-0.473,42.766-1.422c2.539,15.199,4.527,31.07,5.922,47.445
	c4.523,53.426,2.371,107.773-5.848,156.199C284.09,331.918,266.664,331.465,248.887,331.711z M256,1.031
	c18.43,26.934,33.02,66.359,42.25,113.074c-16.016,1.039-32.422,1.441-49.148,1.215c-11.16-0.156-23.016-0.473-35.363-1.145
	C222.961,67.422,237.563,27.977,256,1.031z M334.652,74.516c7.332,10.602,13.859,21.668,19.57,33.164
	c-13.176,2.227-26.664,3.969-40.465,5.219c-6.848-35.156-16.672-66.555-28.863-92.172C303.848,36.063,320.512,54.059,334.652,74.516
	z M177.348,74.516c14.141-20.457,30.805-38.453,49.758-53.789c-12.219,25.68-22.059,57.16-28.906,92.418
	c-13.262-1.031-26.945-2.535-40.785-4.73C163.211,96.656,169.863,85.344,177.348,74.516z M134.73,174.555
	c3.723-17.902,9.082-35.121,16.012-51.563c15.191,2.559,30.195,4.281,44.715,5.457c-2.496,15.148-4.453,30.906-5.824,47.117
	c-4.59,54.066-2.465,109.164,5.742,158.496c-14.52,1.176-29.531,2.898-44.723,5.457C128.82,288.863,122.953,231.156,134.73,174.555z
	 M179.297,389.668c-8.258-11.273-15.551-23.184-21.828-35.578c13.805-2.195,27.449-3.703,40.68-4.734
	c3.27,16.613,7.262,32.445,11.941,47.219c4.145,13.078,9.859,29.094,17.129,44.703C209.965,426.82,193.758,409.395,179.297,389.668z
	 M332.703,389.668c-14.461,19.727-30.668,37.152-47.922,51.609c7.27-15.613,12.984-31.625,17.129-44.703
	c4.66-14.703,8.629-30.449,11.898-46.969c13.758,1.258,27.215,2.988,40.352,5.207C347.965,366.949,340.809,378.613,332.703,389.668z
	"/>
<path fill="#E7E7E7" d="M500.578,289.676H11.422C5.113,289.676,0,284.563,0,278.254v-69.613c0-6.305,5.113-11.418,11.422-11.418
	h489.156c6.309,0,11.422,5.113,11.422,11.418v69.613C512,284.563,506.887,289.676,500.578,289.676z"/>
<g>
	<path fill="#5A5A5A" d="M57.008,257.586c0,1.105-1.66,2.27-3.602,2.27c-2.105,0-3.547-1.164-3.547-2.27v-37.188
		c0-1.332,1.441-2.219,3.547-2.219c1.938,0,3.602,0.887,3.602,2.219v17.012c1-2.16,3.492-4.211,6.984-4.211
		c5.098,0,9.531,5.098,9.531,11.25v13.133c0,1.496-1.828,2.273-3.602,2.273c-1.664,0-3.547-0.777-3.547-2.273v-13.133
		c0-2.496-2.219-4.988-4.824-4.988c-2.27,0-4.543,1.883-4.543,4.988V257.586z"/>
	<path fill="#5A5A5A" d="M89.266,250.879c0,2.16,0.777,2.938,3.105,2.938h2.16c2.051,0,3.047,1.496,3.047,2.992
		c0,1.551-0.996,3.047-3.047,3.047h-2.16c-6.652,0-10.254-2.715-10.254-8.977V224c0-1.328,1.887-2.219,3.547-2.219
		c1.828,0,3.602,0.891,3.602,2.219v9.531h6.543c1.164,0,1.828,1.332,1.828,2.605c0,1.328-0.664,2.602-1.828,2.602h-6.543V250.879z"
		/>
	<path fill="#5A5A5A" d="M111.824,250.879c0,2.16,0.773,2.938,3.105,2.938h2.16c2.051,0,3.047,1.496,3.047,2.992
		c0,1.551-0.996,3.047-3.047,3.047h-2.16c-6.652,0-10.254-2.715-10.254-8.977V224c0-1.328,1.883-2.219,3.547-2.219
		c1.828,0,3.602,0.891,3.602,2.219v9.531h6.539c1.164,0,1.828,1.332,1.828,2.605c0,1.328-0.664,2.602-1.828,2.602h-6.539V250.879z"
		/>
	<path fill="#5A5A5A" d="M134.051,235.75v1.66c1.273-2.16,3.934-4.211,7.48-4.211c5.539,0,9.918,5.098,9.918,11.25v4.543
		c0,5.93-4.543,11.363-9.695,11.363c-3.328,0-6.207-2.109-7.262-4.379v13.855c0,1.164-1.664,2.27-3.656,2.27
		c-2.051,0-3.492-1.105-3.492-2.27v-34.086c0-1.328,1.496-2.215,3.379-2.215C132.664,233.531,134.051,234.418,134.051,235.75z
		 M144.301,244.449c0-2.496-2.27-4.988-5.043-4.988c-2.328,0-4.766,1.883-4.766,4.988v5.543c0,1.164,2.051,4.102,4.875,4.102
		c2.605,0,4.934-2.551,4.934-5.102V244.449z"/>
	<path fill="#5A5A5A" d="M171.793,252.539c0-4.875-13.133-1.828-13.133-11.082c0-3.934,2.492-8.258,9.918-8.258
		c4.488,0,8.813,1.551,8.813,3.602c0,1-0.941,3.438-2.605,3.438c-1.328,0-3.047-1.605-6.094-1.605c-2.773,0-3.879,1.383-3.879,2.492
		c0,4.047,13.301,1.273,13.301,11.141c0,4.93-3.66,8.09-10.199,8.09c-5.652,0-10.031-2.328-10.031-4.766c0-1.164,1-3.16,2.383-3.16
		c1.609,0,2.828,2.496,7.484,2.496C171.02,254.922,171.793,253.648,171.793,252.539z"/>
	<path fill="#5A5A5A" d="M192.801,240.238c0,1.992-1.719,3.77-3.715,3.77c-2.16,0-3.77-1.773-3.77-3.77
		c0-2.051,1.609-3.77,3.77-3.77C191.082,236.469,192.801,238.188,192.801,240.238z M192.801,256.422
		c0,1.992-1.719,3.766-3.715,3.766c-2.16,0-3.77-1.773-3.77-3.766c0-2.051,1.609-3.77,3.77-3.77
		C191.082,252.652,192.801,254.371,192.801,256.422z"/>
	<path fill="#5A5A5A" d="M224.445,219.621c0,0.332-0.055,0.664-0.223,0.996l-19.895,40.238c-0.391,0.773-1.273,1.219-2.164,1.219
		c-1.605,0-2.656-1.273-2.656-2.438c0-0.336,0.109-0.668,0.273-0.945l19.898-40.398c0.387-0.777,1.164-1.164,1.992-1.164
		C223.004,217.129,224.445,218.125,224.445,219.621z"/>
	<path fill="#5A5A5A" d="M241.184,219.621c0,0.332-0.055,0.664-0.219,0.996l-19.898,40.238c-0.387,0.773-1.273,1.219-2.16,1.219
		c-1.605,0-2.66-1.273-2.66-2.438c0-0.336,0.109-0.668,0.277-0.945l19.895-40.398c0.391-0.777,1.164-1.164,1.996-1.164
		C239.742,217.129,241.184,218.125,241.184,219.621z"/>
	<path fill="#5A5A5A" d="M273.223,259.191c-0.391,0.941-1.609,1.273-2.828,1.273c-1.387,0-2.605-0.441-2.938-1.273l-4.27-12.082
		l-4.211,12.027c-0.332,0.887-1.66,1.328-3.047,1.328c-1.164,0-2.383-0.332-2.773-1.328l-8.531-21.895
		c-0.223-0.441-0.277-0.773-0.277-1.051c0-1.719,2.77-2.938,4.656-2.938c0.941,0,1.77,0.387,2.051,1.164l5.539,15.738l4.156-13.688
		c0.391-1.277,1.332-1.441,2.438-1.441c1.055,0,2.051,0.164,2.441,1.441l4.102,13.742l5.594-15.793
		c0.277-0.723,1.055-1.164,2.055-1.164c1.77,0,4.598,1.219,4.598,2.992c0,0.332-0.055,0.719-0.219,0.996L273.223,259.191z"/>
	<path fill="#5A5A5A" d="M314.957,259.191c-0.391,0.941-1.609,1.273-2.828,1.273c-1.387,0-2.602-0.441-2.938-1.273l-4.266-12.082
		l-4.215,12.027c-0.332,0.887-1.66,1.328-3.047,1.328c-1.164,0-2.383-0.332-2.77-1.328l-8.535-21.895
		c-0.223-0.441-0.277-0.773-0.277-1.051c0-1.719,2.77-2.938,4.652-2.938c0.945,0,1.773,0.387,2.051,1.164l5.543,15.738l4.156-13.688
		c0.391-1.277,1.332-1.441,2.438-1.441c1.055,0,2.051,0.164,2.438,1.441l4.105,13.742l5.598-15.793
		c0.273-0.723,1.051-1.164,2.047-1.164c1.773,0,4.602,1.219,4.602,2.992c0,0.332-0.055,0.719-0.223,0.996L314.957,259.191z"/>
	<path fill="#5A5A5A" d="M356.691,259.191c-0.387,0.941-1.605,1.273-2.824,1.273c-1.387,0-2.605-0.441-2.938-1.273l-4.27-12.082
		l-4.211,12.027c-0.332,0.887-1.664,1.328-3.051,1.328c-1.164,0-2.383-0.332-2.77-1.328l-8.535-21.895
		c-0.223-0.441-0.277-0.773-0.277-1.051c0-1.719,2.773-2.938,4.656-2.938c0.941,0,1.773,0.387,2.051,1.164l5.543,15.738
		l4.156-13.688c0.387-1.277,1.328-1.441,2.438-1.441c1.055,0,2.051,0.164,2.438,1.441l4.102,13.742l5.598-15.793
		c0.277-0.723,1.055-1.164,2.051-1.164c1.773,0,4.602,1.219,4.602,2.992c0,0.332-0.059,0.719-0.223,0.996L356.691,259.191z"/>
</g>
<path fill="#C9F0FF" d="M500.578,290.031h-89.895v-93.844h89.895c6.309,0,11.422,5.113,11.422,11.422v71
	C512,284.918,506.887,290.031,500.578,290.031z"/>
<path fill="#FFD86E" d="M464.813,221.602l4.629,9.379c0.566,1.141,1.656,1.934,2.914,2.117l10.355,1.504
	c3.172,0.461,4.441,4.363,2.145,6.602l-7.492,7.305c-0.914,0.887-1.328,2.168-1.113,3.426l1.766,10.309
	c0.543,3.164-2.773,5.574-5.613,4.082l-9.262-4.871c-1.129-0.59-2.477-0.59-3.602,0l-9.262,4.871
	c-2.836,1.492-6.156-0.918-5.613-4.082l1.77-10.309c0.215-1.258-0.203-2.539-1.113-3.426l-7.492-7.305
	c-2.297-2.238-1.031-6.141,2.145-6.602l10.352-1.504c1.262-0.184,2.352-0.977,2.914-2.117l4.629-9.379
	C459.289,218.723,463.391,218.723,464.813,221.602z"/>
<path fill="#9AE7FD" d="M500.578,289.676h-13.934v-92.453h13.934c6.309,0,11.422,5.113,11.422,11.418v69.613
	C512,284.563,506.887,289.676,500.578,289.676z"/>
</svg>
