<?xml version="1.0" encoding="utf-8"?>
<!-- Generator: Adobe Illustrator 16.0.0, SVG Export Plug-In . SVG Version: 6.00 Build 0)  -->
<!DOCTYPE svg PUBLIC "-//W3C//DTD SVG 1.1//EN" "http://www.w3.org/Graphics/SVG/1.1/DTD/svg11.dtd">
<svg version="1.1" id="Calque_1" xmlns="http://www.w3.org/2000/svg" xmlns:xlink="http://www.w3.org/1999/xlink" x="0px" y="0px"
	 width="178.583px" height="42.52px" viewBox="0 0 178.583 42.52" enable-background="new 0 0 178.583 42.52" xml:space="preserve">
<g>
	<path fill="#53BFD0" d="M59.196,23.273c-1.126,0.065-3.07,1.767-3.59,2.758c-0.087,0.149-0.148,0.346-0.144,0.418l0.001,0.023
		c0.041,0.694,3.826,1.292,3.915,2.8l0.001,0.024c0.029,0.913-0.034,2.719-3.628,2.929l-0.479,0.028
		c-2.329,0.04-3.077-0.831-3.132-1.765c-0.056-0.958,0.65-2.034,1.14-2.303l0.001,0.024c0.054,0.91,1.367,1.17,2.445,1.107
		c0.767-0.045,1.404-0.25,1.389-0.514l-0.003-0.049c-0.286-0.776-4.255-0.809-4.569-3.314l-0.007-0.12
		c-0.11-1.893,2.938-4.427,4.641-4.527c0.215-0.013,0.41,0.024,0.581,0.086c1.503,0.61,2.219,1.746,2.267,2.152l0.005,0.096
		c0.019,0.312-0.089,0.535-0.089,0.535l-0.079-0.116C59.705,23.34,59.484,23.256,59.196,23.273z"/>
	<path fill="#53BFD0" d="M62.637,31.151c-1.398-0.063-2.325-0.707-2.392-1.833c-0.017-0.287,0.038-0.603,0.137-0.969l1.826-6.19
		c0,0,0.161-0.539,0.14-0.897c-0.006-0.097-0.035-0.191-0.085-0.236l-0.027-0.047c-0.004-0.071,0.158-0.177,0.421-0.192
		c0.504-0.029,1.483,0.273,2.719,1.669c0.206,0.227,0.29,0.438,0.304,0.678c0.013,0.216-0.046,0.437-0.125,0.729
		c-0.41,1.226-1.412,3.833-1.354,4.839c0.015,0.239,0.12,0.401,0.288,0.392l0.023-0.001c1.29-0.148,2.559-3.948,2.619-4.144
		l0.887-0.052c-0.56,1.523-2.121,6.086-5.02,6.255L62.637,31.151z M63.13,19.413l-0.015-0.239c-0.049-0.839,0.145-1.234,0.261-2.54
		c0.031-0.291,0.018-0.53,0.006-0.722c-0.011-0.19-0.018-0.311,0.025-0.386c0.066-0.1,0.184-0.155,0.352-0.165
		c0.935-0.055,3.22,1.206,3.292,2.451c0.009,0.145-0.008,0.266-0.049,0.388c-0.348,1.054-0.736,1.39-0.833,2.213
		c-0.014,0.169-0.199,0.276-0.439,0.29C64.891,20.753,63.188,20.011,63.13,19.413z"/>
	<path fill="#53BFD0" d="M68.849,30.909c-1-0.255-2.461-0.987-2.555-2.159l-0.005-0.096c-0.115-1.966,1.274-5.772,1.95-7.785
		l-0.406,0.048c-1.893,0.11-3.969-0.85-4.061-2.431c-0.029-0.503,0.152-1.091,0.62-1.72c0.245-0.327,0.383-0.456,0.431-0.458
		c0.024-0.001,0.025,0.023,0.026,0.046c0.008,0.12-0.053,0.34-0.07,0.437l-0.033,0.267c0.055,0.934,1.759,1.7,3.963,1.572
		l0.239-0.014c0.179-0.659,0.357-1.295,0.489-1.928c0,0,0.158-0.586,0.139-0.921c-0.006-0.097-0.034-0.167-0.062-0.214l-0.026-0.046
		c-0.004-0.072,0.134-0.175,0.397-0.191c0.503-0.029,1.482,0.274,2.719,1.668c0.229,0.228,0.315,0.464,0.328,0.679
		c0.013,0.216-0.046,0.459-0.15,0.73c0.55-0.056,1.076-0.111,1.651-0.145l0.623-0.037c0.194,0.037,0.283,0.32,0.304,0.68
		c0.041,0.695-0.17,1.621-0.386,1.633c-0.023,0.001-0.073-0.02-0.1-0.066c-0.133-0.209-0.593-0.278-1.24-0.24
		c-0.456,0.026-1.004,0.106-1.575,0.211c-0.721,2.063-1.414,4.194-1.939,6.317c-0.213,0.877-0.271,1.506-0.246,1.938
		c0.033,0.574,0.238,0.803,0.55,0.785c0.911-0.053,2.719-2.443,3.098-4.604l0.982-0.057c-0.63,2.393-1.641,6.082-4.421,6.244
		C69.7,31.075,69.289,31.027,68.849,30.909z"/>
	<path fill="#53BFD0" d="M74.496,30.049c-1.071-0.634-1.576-1.471-1.64-2.549c-0.032-0.551,0.076-1.182,0.251-1.89
		c0.703-2.782,3.003-5.392,5.769-5.794l0.788-0.094c1.51-0.088,2.376,0.341,2.45,1.612c0.023,0.407-0.044,0.891-0.178,1.476
		c-0.346,1.512-1.934,4.37-3.803,4.479c-0.287,0.017-0.604-0.038-0.925-0.187l0.006,0.096c0.048,0.815,0.348,1.423,1.123,1.521
		l0.288,0.008c1.965-0.115,4.771-3.957,4.741-4.46l1.103-0.064c-1.134,2.832-4.175,6.327-7.362,6.513
		C76.245,30.766,75.345,30.577,74.496,30.049z M79.518,21.75c-0.006-0.095-0.032-0.141-0.08-0.138l-0.071,0.028
		c-0.602,0.395-1.592,2.376-1.994,4.131c0.051,0.045,0.101,0.065,0.172,0.062C78.287,25.789,79.561,22.493,79.518,21.75z"/>
	<path fill="#53BFD0" d="M99.741,29.249c-1.279-0.068-1.666-0.528-1.939-1.498c-0.096,0.824-1.085,1.602-1.899,1.649
		c-1.008,0.035-1.57-0.556-1.838-1.431c-0.428,0.916-1.062,1.601-1.972,1.653c-2.134,0.101-2.87-1.394-2.977-3.215
		C88.998,24.395,89.652,22,89.973,20.9c0,0,0.161-0.539,0.141-0.899c-0.006-0.095-0.035-0.189-0.086-0.235l-0.026-0.022
		c-0.003-0.048,0.115-0.079,0.308-0.09c0.791-0.046,2.897,0.215,3.184,0.584c0.181,0.205,0.241,0.418,0.252,0.61
		c0.013,0.215-0.022,0.434-0.125,0.728c-0.206,0.589-1.238,3.51-1.148,5.044c0.031,0.526,0.195,0.877,0.559,0.929l0.024-0.001
		c0.312-0.018,0.68-1.939,0.91-3.346c0.17-1.212,0.437-2.407,0.777-3.58c0,0,0.158-0.586,0.139-0.922
		c-0.006-0.096-0.034-0.166-0.061-0.213l-0.025-0.022c-0.003-0.048,0.093-0.054,0.236-0.062c0.695-0.041,2.759,0.295,2.835,1.613
		c0.012,0.191-0.001,0.385-0.085,0.607c-0.166,0.442-1.146,3.433-1.07,4.727c0.021,0.359,0.132,0.594,0.348,0.605
		c0.527-0.031,2.079-5.988,2.278-6.697c0,0,0.161-0.538,0.14-0.897c-0.005-0.096-0.035-0.191-0.086-0.236l-0.025-0.022
		c-0.004-0.072,0.158-0.179,0.422-0.194c0.504-0.029,1.481,0.251,2.717,1.646c0.206,0.229,0.29,0.439,0.303,0.655
		s-0.045,0.459-0.148,0.754c-0.41,1.202-1.352,3.613-1.298,4.523c0.014,0.24,0.094,0.379,0.285,0.368l0.023-0.001
		c0.837-0.097,2.28-3.787,2.28-3.787l1.006-0.059c0,0-1.929,6.075-4.924,6.25L99.741,29.249z"/>
	<path fill="#53BFD0" d="M105.043,28.266c-1.07-0.634-1.576-1.471-1.639-2.549c-0.032-0.551,0.075-1.182,0.25-1.89
		c0.703-2.782,3.003-5.392,5.769-5.794l0.788-0.094c1.51-0.088,2.376,0.341,2.45,1.612c0.023,0.407-0.044,0.891-0.178,1.477
		c-0.345,1.511-1.933,4.369-3.803,4.479c-0.287,0.017-0.604-0.038-0.925-0.187l0.006,0.096c0.048,0.815,0.348,1.423,1.123,1.521
		l0.289,0.008c1.965-0.115,4.77-3.957,4.74-4.46l1.103-0.064c-1.134,2.832-4.175,6.327-7.362,6.513
		C106.792,28.982,105.892,28.793,105.043,28.266z M110.064,19.966c-0.006-0.095-0.032-0.141-0.08-0.138l-0.07,0.029
		c-0.603,0.395-1.593,2.376-1.995,4.131c0.051,0.045,0.101,0.066,0.172,0.062C108.834,24.005,110.107,20.709,110.064,19.966z"/>
	<path fill="#53BFD0" d="M117.341,27.26c0.168,0.399,0.351,0.653,0.453,0.743c0.1,0.067,0.128,0.137,0.131,0.185
		c0.006,0.096-0.137,0.128-0.137,0.128l-0.191,0.011c-1.15,0.067-3.957-0.634-4.08-2.334l-0.003-0.048
		c-0.142-2.42,2.526-9.044,3.24-12.043c0,0,0.158-0.586,0.137-0.946c-0.005-0.096-0.033-0.167-0.061-0.213l-0.026-0.046
		c-0.005-0.072,0.136-0.151,0.375-0.165c0.527-0.031,1.506,0.248,2.74,1.642c0.206,0.229,0.314,0.439,0.329,0.678
		c0.012,0.216-0.048,0.435-0.15,0.73c-0.762,2.184-0.96,2.509-1.668,4.786c1.334-1.449,2.899-2.646,3.475-2.68
		c0,0,1.88,1.742,2.712,1.981c0.073,0.02,0.097,0.018,0.1,0.066l-0.019,0.098c-0.124,0.344-0.454,1.685-0.87,3.2
		c0.608-0.276,1.163-0.669,1.491-1.217l1.127-0.065c0,0-1.18,1.632-3,2.579c-0.603,2.031-1.354,3.975-1.978,4.012
		C120.532,28.372,118.816,27.823,117.341,27.26z M119.955,23.837c0.173-0.731,0.28-1.363,0.265-1.626
		c-0.002-0.048-0.005-0.096-0.029-0.094c-0.074-0.044-0.146-0.04-0.267-0.033c-0.814,0.047-2.438,1.464-2.657,2.246
		C118.091,24.042,119.165,23.908,119.955,23.837z M119.325,25.821c0.107-0.222,0.188-0.491,0.292-0.762
		c-1.27,0.074-1.689,0.291-1.825,0.443c-0.068,0.077-0.088,0.15-0.083,0.222c0.015,0.263,0.531,0.449,0.986,0.423
		C118.959,26.131,119.218,26.044,119.325,25.821z"/>
</g>
</svg>
