<?xml version="1.0" encoding="UTF-8" standalone="no"?><!DOCTYPE svg PUBLIC "-//W3C//DTD SVG 1.1//EN" "http://www.w3.org/Graphics/SVG/1.1/DTD/svg11.dtd"><svg width="100%" height="100%" viewBox="0 0 81 81" version="1.1" xmlns="http://www.w3.org/2000/svg" xmlns:xlink="http://www.w3.org/1999/xlink" xml:space="preserve" xmlns:serif="http://www.serif.com/" style="fill-rule:evenodd;clip-rule:evenodd;stroke-linecap:round;stroke-linejoin:round;stroke-miterlimit:1.5;"><rect id="Plan-de-travail1" serif:id="Plan de travail1" x="-977" y="-3442" width="1920" height="4315.75" style="fill:none;"/><text x="-660.681px" y="65.529px" style="font-family:'RushingNightshade', 'Rushing Nightshade';font-size:96px;fill:#53bfd0;">Roman graphique</text><circle cx="29.94" cy="33.765" r="7.492" style="fill:#53bfd0;"/><path d="M29.852,63.251c0,-0.003 0,-0.007 0.001,-0.01c0.043,-0.356 0.367,-0.611 0.724,-0.568c0.356,0.043 0.611,0.367 0.568,0.724c-0.001,0.003 -0.001,0.007 -0.002,0.01l-0.803,5.869l5.892,0.614c0.003,0 0.007,0.001 0.01,0.001c0.357,0.043 0.611,0.367 0.568,0.724c-0.043,0.356 -0.367,0.611 -0.724,0.568c-0.003,-0.001 -0.006,-0.001 -0.01,-0.002l-5.869,-0.803l-0.614,5.892c0,0.003 -0.001,0.007 -0.001,0.01c-0.043,0.357 -0.367,0.611 -0.724,0.568c-0.356,-0.043 -0.611,-0.367 -0.568,-0.723c0.001,-0.004 0.001,-0.007 0.002,-0.011l0.803,-5.868l-5.892,-0.615c-0.003,0 -0.007,0 -0.01,-0.001c-0.357,-0.043 -0.611,-0.367 -0.568,-0.723c0.043,-0.357 0.367,-0.611 0.723,-0.569c0.004,0.001 0.007,0.001 0.011,0.002l5.869,0.803l0.614,-5.892Z" style="fill:none;stroke:#53bfd0;stroke-width:5px;"/><path d="M58.998,43.279c0.003,-0.002 0.006,-0.004 0.009,-0.006c0.31,-0.18 0.709,-0.074 0.889,0.236c0.18,0.311 0.075,0.709 -0.236,0.889c-0.003,0.002 -0.006,0.004 -0.009,0.006l-5.17,2.891l3.057,5.074c0.002,0.003 0.003,0.006 0.005,0.009c0.181,0.311 0.075,0.709 -0.236,0.89c-0.31,0.18 -0.709,0.074 -0.889,-0.236c-0.002,-0.003 -0.003,-0.006 -0.005,-0.009l-2.892,-5.17l-5.074,3.056c-0.003,0.002 -0.006,0.004 -0.009,0.006c-0.31,0.18 -0.709,0.074 -0.889,-0.236c-0.18,-0.311 -0.075,-0.709 0.236,-0.889c0.003,-0.002 0.006,-0.004 0.009,-0.006l5.169,-2.891l-3.056,-5.074c-0.002,-0.003 -0.004,-0.006 -0.005,-0.009c-0.181,-0.311 -0.075,-0.709 0.236,-0.89c0.31,-0.18 0.709,-0.074 0.889,0.236c0.002,0.003 0.003,0.006 0.005,0.009l2.892,5.17l5.074,-3.056Z" style="fill:none;stroke:#53bfd0;stroke-width:5px;"/></svg>