<?xml version="1.0" encoding="UTF-8" standalone="no"?><!DOCTYPE svg PUBLIC "-//W3C//DTD SVG 1.1//EN" "http://www.w3.org/Graphics/SVG/1.1/DTD/svg11.dtd"><svg width="100%" height="100%" viewBox="0 0 81 81" version="1.1" xmlns="http://www.w3.org/2000/svg" xmlns:xlink="http://www.w3.org/1999/xlink" xml:space="preserve" xmlns:serif="http://www.serif.com/" style="fill-rule:evenodd;clip-rule:evenodd;stroke-linecap:round;stroke-linejoin:round;stroke-miterlimit:1.5;"><rect id="Plan-de-travail1" serif:id="Plan de travail1" x="-216" y="-3442" width="1920" height="4315.75" style="fill:none;"/><circle cx="55.841" cy="29.897" r="21.752" style="fill:#53bfd0;"/><circle cx="65.607" cy="67.099" r="7.492" style="fill:#53bfd0;"/><path d="M19.852,46.918c0,-0.003 0,-0.007 0.001,-0.01c0.043,-0.357 0.367,-0.611 0.724,-0.568c0.356,0.043 0.611,0.367 0.568,0.723c-0.001,0.004 -0.001,0.007 -0.002,0.011l-0.803,5.868l5.892,0.615c0.003,0 0.007,0 0.01,0.001c0.357,0.043 0.611,0.367 0.568,0.723c-0.043,0.357 -0.367,0.611 -0.724,0.568c-0.003,0 -0.007,0 -0.01,-0.001l-5.869,-0.803l-0.614,5.892c0,0.003 -0.001,0.007 -0.001,0.01c-0.043,0.356 -0.367,0.611 -0.724,0.568c-0.356,-0.043 -0.611,-0.367 -0.568,-0.724c0.001,-0.003 0.001,-0.007 0.002,-0.01l0.803,-5.869l-5.892,-0.614c-0.003,0 -0.007,-0.001 -0.01,-0.001c-0.357,-0.043 -0.611,-0.367 -0.568,-0.724c0.043,-0.356 0.367,-0.611 0.723,-0.568c0.004,0.001 0.007,0.001 0.011,0.001l5.869,0.804l0.614,-5.892Z" style="fill:none;stroke:#53bfd0;stroke-width:5px;"/></svg>