<?xml version="1.0" encoding="UTF-8" standalone="no"?><!DOCTYPE svg PUBLIC "-//W3C//DTD SVG 1.1//EN" "http://www.w3.org/Graphics/SVG/1.1/DTD/svg11.dtd"><svg width="100%" height="100%" viewBox="0 0 550 500" version="1.1" xmlns="http://www.w3.org/2000/svg" xmlns:xlink="http://www.w3.org/1999/xlink" xml:space="preserve" xmlns:serif="http://www.serif.com/" style="fill-rule:evenodd;clip-rule:evenodd;stroke-linecap:round;stroke-linejoin:round;stroke-miterlimit:1.5;"><rect id="Plan-de-travail1" serif:id="Plan de travail1" x="-181" y="-250" width="1920" height="4315.75" style="fill:none;"/><g><g><circle cx="234.391" cy="240.316" r="231.974" style="fill:#53bfd0;"/><circle cx="461.542" cy="450.501" r="43.802" style="fill:#53bfd0;"/><circle cx="529.537" cy="407.277" r="15.087" style="fill:#53bfd0;"/><path d="M491.769,345.83c0.001,-0.007 0.001,-0.014 0.002,-0.021c0.087,-0.718 0.74,-1.23 1.458,-1.144c0.718,0.087 1.23,0.74 1.144,1.458c-0.001,0.007 -0.002,0.014 -0.003,0.021l-1.617,11.818l11.864,1.236c0.007,0.001 0.014,0.002 0.021,0.003c0.717,0.086 1.23,0.739 1.143,1.457c-0.086,0.718 -0.739,1.23 -1.457,1.144c-0.007,-0.001 -0.014,-0.002 -0.021,-0.003l-11.818,-1.617l-1.237,11.864c0,0.007 -0.001,0.014 -0.002,0.021c-0.086,0.718 -0.739,1.23 -1.457,1.144c-0.718,-0.087 -1.231,-0.74 -1.144,-1.458c0.001,-0.007 0.002,-0.014 0.003,-0.02l1.617,-11.819l-11.864,-1.236c-0.007,-0.001 -0.014,-0.002 -0.021,-0.003c-0.718,-0.086 -1.23,-0.739 -1.144,-1.457c0.087,-0.718 0.74,-1.23 1.457,-1.144c0.007,0.001 0.014,0.002 0.021,0.003l11.818,1.617l1.237,-11.864Z" style="fill:none;stroke:#53bfd0;stroke-width:5px;"/></g></g><g id="cycliques"></g></svg>