<?xml version="1.0" encoding="UTF-8" standalone="no"?><!DOCTYPE svg PUBLIC "-//W3C//DTD SVG 1.1//EN" "http://www.w3.org/Graphics/SVG/1.1/DTD/svg11.dtd"><svg width="100%" height="100%" viewBox="0 0 29 29" version="1.1" xmlns="http://www.w3.org/2000/svg" xmlns:xlink="http://www.w3.org/1999/xlink" xml:space="preserve" xmlns:serif="http://www.serif.com/" style="fill-rule:evenodd;clip-rule:evenodd;stroke-linejoin:round;stroke-miterlimit:2;"><rect id="Plan-de-travail1" serif:id="Plan de travail1" x="-946" y="-284" width="1920" height="1252" style="fill:none;"/><g id="logo"></g><path d="M14.5,1c-7.448,-0 -13.5,6.052 -13.5,13.5c0,7.448 6.052,13.5 13.5,13.5c7.448,-0 13.5,-6.052 13.5,-13.5c0,-7.448 -6.052,-13.5 -13.5,-13.5Zm0,1.174c6.813,-0 12.326,5.513 12.326,12.326c0,0.042 -0.003,0.083 -0.003,0.125c-0.376,-0.035 -0.81,-0.068 -1.361,-0.087c-0.78,-0.028 -1.763,-0.02 -2.878,0.035c0.042,-0.287 0.071,-0.579 0.071,-0.879c0.057,-1.099 -0.312,-2.127 -0.912,-3.036c0.145,-0.501 0.315,-1.138 0.358,-1.861c0.048,-0.825 -0.023,-1.739 -0.685,-2.356l-0.169,-0.158l-0.232,-0c-1.575,-0 -2.653,0.659 -3.312,1.182c-0.952,-0.369 -2.022,-0.595 -3.203,-0.595c-1.188,-0 -2.268,0.229 -3.259,0.597c-0.659,-0.523 -1.738,-1.184 -3.314,-1.184l-0.231,-0l-0.17,0.157c-0.644,0.598 -0.704,1.487 -0.663,2.307c0.035,0.724 0.195,1.381 0.338,1.907c-0.611,0.926 -0.977,1.981 -0.977,3.024c0,0.3 0.028,0.593 0.069,0.882c-1.06,-0.05 -2.005,-0.059 -2.755,-0.032c-0.551,0.019 -0.985,0.052 -1.361,0.087c0,-0.039 -0.003,-0.077 -0.003,-0.115c-0,-6.813 5.513,-12.326 12.326,-12.326Zm-6.224,5.359c1.184,0.113 2.075,0.641 2.488,1.008l0.275,0.243l0.339,-0.139c0.929,-0.382 1.964,-0.602 3.122,-0.602c1.158,0 2.194,0.221 3.052,0.597l0.344,0.151l0.281,-0.25c0.412,-0.367 1.305,-0.896 2.489,-1.008c0.158,0.262 0.295,0.633 0.262,1.195c-0.04,0.672 -0.22,1.405 -0.356,1.84l-0.088,0.283l0.176,0.24c0.58,0.792 0.877,1.649 0.826,2.555l-0.001,0.016l0,0.016c0,1.465 -0.527,2.637 -1.651,3.506c-1.123,0.868 -2.897,1.425 -5.392,1.425c-2.496,-0 -4.271,-0.557 -5.394,-1.425c-1.124,-0.869 -1.65,-2.041 -1.65,-3.506c0,-0.86 0.311,-1.805 0.884,-2.587l0.172,-0.234l-0.083,-0.279c-0.136,-0.462 -0.302,-1.211 -0.336,-1.888c-0.027,-0.563 0.106,-0.918 0.241,-1.157Zm-3.235,7.567c0.415,0.005 0.89,0.027 1.367,0.051c0.045,0.183 0.097,0.363 0.16,0.539c-1.941,0.041 -3.393,0.236 -4.289,0.403c-0.037,-0.293 -0.068,-0.589 -0.084,-0.889c0.661,-0.063 1.594,-0.12 2.846,-0.104Zm18.918,0.009c1.252,-0.016 2.184,0.041 2.845,0.104c-0.017,0.296 -0.046,0.587 -0.083,0.877c-0.928,-0.17 -2.419,-0.365 -4.411,-0.397c0.062,-0.172 0.114,-0.349 0.159,-0.528c0.525,-0.028 1.038,-0.051 1.49,-0.056Zm-17.141,1.163c0.35,0.702 0.851,1.329 1.512,1.84c0.904,0.7 2.08,1.188 3.515,1.449c-0.188,0.193 -0.359,0.405 -0.51,0.629l-0.036,-0.031c0.003,-0.004 -0.292,0.144 -0.732,0.183c-0.441,0.04 -0.985,0.028 -1.467,0.028c-0.719,-0 -1.035,-0.34 -1.541,-0.959c-0.281,-0.378 -0.622,-0.684 -0.954,-0.916c-0.34,-0.238 -0.63,-0.405 -0.988,-0.465l-0.049,-0.008l-0.049,-0c-0.274,-0 -0.539,0.02 -0.786,0.302c-0.124,0.142 -0.209,0.404 -0.154,0.625c0.055,0.222 0.196,0.358 0.321,0.442c0.802,0.534 0.944,1.593 1.447,2.534c0.469,0.936 1.483,1.379 2.518,1.379l1.526,0l0,2.819c-4.127,-1.457 -7.24,-5.046 -8.022,-9.449c0.898,-0.17 2.403,-0.373 4.449,-0.402Zm15.244,0.005c2.091,0.018 3.638,0.221 4.57,0.393c-0.781,4.405 -3.895,7.996 -8.023,9.453l-0,-3.054c-0,-0.93 -0.306,-1.955 -0.837,-2.811c-0.162,-0.259 -0.351,-0.505 -0.563,-0.725c1.359,-0.269 2.475,-0.749 3.344,-1.421c0.66,-0.51 1.159,-1.135 1.509,-1.835Zm-8.326,3.564l1.644,0c0.478,0 0.987,0.38 1.394,1.036c0.408,0.657 0.661,1.538 0.661,2.192l-0,3.404c-0.941,0.229 -1.923,0.353 -2.935,0.353c-1.012,0 -1.994,-0.124 -2.935,-0.353l0,-3.404c0,-0.64 0.275,-1.519 0.71,-2.178c0.435,-0.659 0.984,-1.05 1.461,-1.05Zm-6.685,0.694c0.508,0.527 1.123,1.008 2.049,1.008c0.458,0 1.029,0.017 1.571,-0.032c0.002,0 0.004,-0.001 0.006,-0.001c-0.072,0.206 -0.125,0.412 -0.17,0.62l-1.642,0c-0.723,0 -1.235,-0.261 -1.47,-0.732l-0.005,-0.008l-0.003,-0.007c-0.097,-0.179 -0.224,-0.538 -0.336,-0.848Z" style="fill:#4dcd90;fill-rule:nonzero;"/></svg>