<?xml version="1.0" encoding="UTF-8" standalone="no"?><!DOCTYPE svg PUBLIC "-//W3C//DTD SVG 1.1//EN" "http://www.w3.org/Graphics/SVG/1.1/DTD/svg11.dtd"><svg width="100%" height="100%" viewBox="0 0 29 29" version="1.1" xmlns="http://www.w3.org/2000/svg" xmlns:xlink="http://www.w3.org/1999/xlink" xml:space="preserve" xmlns:serif="http://www.serif.com/" style="fill-rule:evenodd;clip-rule:evenodd;stroke-linejoin:round;stroke-miterlimit:2;"><rect id="Plan-de-travail1" serif:id="Plan de travail1" x="-996" y="-284" width="1920" height="1252" style="fill:none;"/><g id="logo"></g><path d="M14.803,12.412c0.076,-0.082 0.106,-0.108 0.128,-0.139c1.044,-1.524 2.536,-1.972 4.277,-1.705c2.012,0.31 3.299,1.718 3.628,3.873c0.078,0.511 0.117,1.024 0.116,1.541c-0.001,2.145 -0.004,4.29 0.005,6.436c0.001,0.241 -0.058,0.312 -0.306,0.309c-1.124,-0.013 -2.248,-0.013 -3.372,0c-0.246,0.003 -0.309,-0.067 -0.308,-0.309c0.009,-2.001 0.006,-4.002 0.004,-6.003c-0.001,-0.454 -0.032,-0.906 -0.16,-1.347c-0.409,-1.412 -2.016,-1.908 -3.161,-0.969c-0.618,0.507 -0.86,1.178 -0.855,1.968c0.01,1.887 0.003,3.775 0.003,5.662c-0,0.248 -0.014,0.496 0.004,0.742c0.016,0.214 -0.072,0.255 -0.265,0.254c-1.145,-0.008 -2.29,-0.008 -3.435,0.001c-0.207,0.001 -0.282,-0.041 -0.28,-0.269c0.017,-1.702 0.024,-3.404 0.025,-5.105c-0,-2.094 -0.004,-4.188 -0.019,-6.281c-0.001,-0.229 0.047,-0.297 0.283,-0.295c1.145,0.013 2.29,0.011 3.435,0.002c0.206,-0.002 0.263,0.06 0.257,0.26c-0.014,0.432 -0.004,0.864 -0.004,1.374" style="fill:#4dcd90;"/><path d="M8.649,16.753c0,1.887 -0.004,3.774 0.005,5.661c0.001,0.234 -0.046,0.317 -0.302,0.314c-1.134,-0.015 -2.268,-0.012 -3.402,-0.002c-0.21,0.002 -0.281,-0.051 -0.281,-0.272c0.005,-3.805 0.004,-7.609 -0.001,-11.414c-0,-0.198 0.048,-0.264 0.256,-0.262c1.155,0.009 2.31,0.011 3.464,-0.001c0.231,-0.003 0.266,0.081 0.266,0.285c-0.008,1.897 -0.005,3.794 -0.005,5.691" style="fill:#4dcd90;"/><path d="M6.692,5.027c1.521,0.002 2.509,1.207 2.149,2.62c-0.273,1.067 -1.376,1.682 -2.65,1.475c-1.354,-0.22 -2.108,-1.54 -1.609,-2.817c0.311,-0.797 1.107,-1.279 2.11,-1.278" style="fill:#4dcd90;"/></svg>