<?xml version="1.0" encoding="utf-8"?>
<!-- Generator: Adobe Illustrator 16.0.0, SVG Export Plug-In . SVG Version: 6.00 Build 0)  -->
<!DOCTYPE svg PUBLIC "-//W3C//DTD SVG 1.1//EN" "http://www.w3.org/Graphics/SVG/1.1/DTD/svg11.dtd">
<svg version="1.1" id="Calque_1" xmlns="http://www.w3.org/2000/svg" xmlns:xlink="http://www.w3.org/1999/xlink" x="0px" y="0px"
	 width="304.45px" height="194.917px" viewBox="0 0 304.45 194.917" enable-background="new 0 0 304.45 194.917"
	 xml:space="preserve">
<g>
	<g>
		<g>
			<path fill="#53BFD0" d="M36.89,110.832c-4.275-0.01-7.188-1.852-7.536-5.281c-0.089-0.875,0.034-1.844,0.288-2.976l4.768-19.127
				c0,0,0.421-1.666,0.31-2.76c-0.03-0.293-0.132-0.576-0.292-0.707l-0.088-0.137c-0.022-0.221,0.459-0.563,1.261-0.645
				c1.533-0.156,4.56,0.643,8.513,4.736c0.658,0.672,0.943,1.307,1.017,2.035c0.067,0.658-0.085,1.336-0.289,2.242
				c-1.09,3.793-3.808,11.881-3.497,14.942c0.073,0.73,0.417,1.213,0.928,1.16l0.073-0.008c3.917-0.617,7.294-12.382,7.454-12.987
				l2.7-0.273c-1.512,4.723-5.681,18.853-14.508,19.745L36.89,110.832z M36.866,74.944l-0.074-0.729
				c-0.259-2.555,0.28-3.788,0.464-7.787c0.057-0.889-0.017-1.619-0.076-2.203c-0.059-0.583-0.096-0.948,0.027-1.182
				c0.189-0.314,0.54-0.498,1.049-0.549c2.846-0.288,9.985,3.263,10.369,7.056c0.045,0.438,0.008,0.81-0.101,1.19
				c-0.922,3.263-2.065,4.335-2.252,6.861c-0.021,0.518-0.575,0.869-1.305,0.943C42.415,78.804,37.124,76.759,36.866,74.944z"/>
			<path fill="#53BFD0" d="M54.16,129.276c-1.693-0.713-2.41-1.969-2.565-3.5c-0.517-5.105,5.79-13.409,8.508-15.674
				c-2.26-4.117-8.12-5.957-9.377-6.715c-0.08-0.066-0.087-0.139-0.094-0.211l0.043-0.301l11.678-13.487
				c-2.682,2.629-6.056,4.961-8.536,5.211c-0.438,0.045-0.803,0.082-1.183-0.027c-2.635-0.543-3.672-2.795-3.932-5.35
				c-0.273-2.699,0.306-5.707,0.996-7.619c0.51-1.525,0.588-2.197,0.558-2.488c-0.029-0.293-0.102-0.285-0.174-0.277l-0.146,0.014
				c-0.073,0.008-0.073,0.008-0.08-0.064c0.021-0.518,0.523-0.643,0.955-0.76l0.941-0.168c3.136-0.318,8.85,0.797,9.086,2.395
				c0.022,0.221-1.09,3.059-0.972,4.227c0.037,0.365,0.205,0.57,0.496,0.539c0.219-0.021,0.503-0.125,0.912-0.461
				c1.305-0.941,2.257-3.176,2.439-3.564c0.241-0.539,0.664-0.729,1.173-0.781c2.481-0.252,7.549,3.953,8.528,4.885
				c0.081,0.066,0.095,0.213,0.111,0.357c0.258,2.553-10.546,14.482-10.339,16.523l0.007,0.072c0.117,0.432,2.569,1.36,4.899,3.263
				c5.691-4.925,7.715-8.226,9.069-15.952l2.626-0.266c-1.521,8.26-3.908,12.334-9.738,18.083c1.177,1.43,1.784,3.061,1.961,4.813
				c0.776,7.659-6.887,17.131-14.036,17.856C56.664,129.979,55.394,129.815,54.16,129.276z M61.1,113.391l-0.022-0.219
				c-1.625,1.418-5.928,7.676-5.633,10.594c0.051,0.512,0.314,0.928,0.71,1.182c0.313,0.189,0.62,0.303,0.984,0.266
				C59.837,124.94,61.395,116.307,61.1,113.391z"/>
			<path fill="#53BFD0" d="M81.368,126.518c-1.693-0.713-2.41-1.967-2.565-3.498c-0.518-5.107,5.79-13.411,8.509-15.674
				c-2.26-4.117-8.121-5.958-9.377-6.716c-0.081-0.066-0.087-0.139-0.095-0.211l0.043-0.299l11.678-13.49
				c-2.682,2.631-6.056,4.963-8.536,5.213c-0.438,0.045-0.803,0.082-1.183-0.027c-2.634-0.543-3.672-2.797-3.931-5.35
				c-0.273-2.699,0.306-5.707,0.997-7.619c0.508-1.525,0.587-2.197,0.558-2.49c-0.03-0.291-0.102-0.283-0.175-0.275l-0.145,0.014
				c-0.073,0.008-0.073,0.008-0.081-0.066c0.022-0.516,0.524-0.641,0.955-0.758l0.941-0.17c3.137-0.316,8.851,0.799,9.086,2.396
				c0.022,0.219-1.09,3.057-0.972,4.225c0.037,0.365,0.205,0.57,0.496,0.539c0.219-0.021,0.503-0.123,0.912-0.459
				c1.304-0.943,2.258-3.178,2.439-3.564c0.24-0.539,0.662-0.73,1.172-0.781c2.481-0.252,7.549,3.951,8.528,4.885
				c0.08,0.064,0.095,0.211,0.11,0.357c0.258,2.553-10.545,14.48-10.338,16.521l0.008,0.074c0.117,0.432,2.57,1.361,4.899,3.262
				c5.691-4.924,7.714-8.225,9.069-15.951l2.625-0.266c-1.521,8.258-3.908,12.332-9.737,18.083c1.177,1.428,1.784,3.061,1.961,4.811
				c0.776,7.661-6.887,17.133-14.036,17.858C83.871,127.223,82.601,127.057,81.368,126.518z M88.307,110.635l-0.022-0.219
				c-1.625,1.418-5.928,7.674-5.632,10.594c0.052,0.512,0.315,0.926,0.709,1.182c0.314,0.189,0.621,0.301,0.985,0.266
				C87.045,122.184,88.602,113.551,88.307,110.635z"/>
			<path fill="#53BFD0" d="M120.302,91.843c-2.299,4.949-5.647,11.187-9.294,11.554c-0.438,0.045-0.811,0.01-1.262-0.094
				c-4.103-1.206-7.325-4.638-8.32-7.927c-0.198-0.494-0.256-1.078-0.323-1.734c-0.776-7.66,6.715-20.285,14.06-21.25l0.146-0.016
				c2.553-0.26,6.18,1.365,8.649,3.178c1.568-5.611,3.13-10.56,4.48-16.15c-1.481-0.072-3.093,0.018-4.771,0.188
				c-12.62,1.279-30.266,8.225-42.74,9.488c-6.857,0.695-12.118-0.32-14.065-4.986c-0.381-0.846-0.542-1.713-0.624-2.516
				c-0.428-4.23,2.369-7.905,5.297-11.002c1.534,7.141,10.02,7.977,20.815,6.882c9.849-0.997,21.599-3.589,31.665-4.608
				c2.261-0.229,4.457-0.377,6.515-0.438c3.02-0.011,8.721,3.169,9.127,7.183c0.061,0.582-0.027,1.182-0.186,1.787
				c-2.753,9.195-5.909,18.064-7.814,27.619c-0.631,3.232-0.854,5.391-0.729,6.631c0.111,1.094,0.456,1.576,0.966,1.523
				c1.896-0.191,5.972-7.975,6.685-14.014l2.992-0.303c-0.318,1.945-4.559,18.295-11.853,19.033l-0.438,0.045
				c-3.312,0.039-8.611-2.813-9.039-6.307C120.138,94.587,120.15,93.259,120.302,91.843z M120.225,77.995
				c-1.531,0.156-6.1,10.346-5.826,13.045c0.044,0.438,0.22,0.717,0.585,0.68l0.073-0.008c2.334-0.236,6.194-5.787,6.194-5.787
				s1.408-5.742,1.633-6.43C122.065,78.694,121.035,77.987,120.225,77.995z"/>
			<path fill="#53BFD0" d="M141.146,99.017c-3.351-1.795-5.003-4.283-5.335-7.564c-0.169-1.68,0.076-3.619,0.517-5.803
				c1.785-8.582,8.463-16.848,16.851-18.435l2.393-0.391c4.596-0.465,7.299,0.734,7.689,4.601c0.125,1.24-0.02,2.729-0.354,4.531
				c-0.854,4.656-5.33,13.586-11.022,14.162c-0.875,0.088-1.844-0.035-2.844-0.449l0.029,0.291c0.252,2.479,1.246,4.295,3.623,4.498
				l0.885-0.018c5.98-0.605,14.043-12.697,13.887-14.229l3.355-0.34c-3.09,8.789-11.918,19.852-21.62,20.834
				C146.576,100.974,143.804,100.517,141.146,99.017z M155.392,73.032c-0.029-0.293-0.117-0.43-0.262-0.414l-0.215,0.094
				c-1.788,1.287-4.551,7.463-5.551,12.871c0.16,0.131,0.314,0.189,0.533,0.166C152.159,85.521,155.621,75.294,155.392,73.032z"/>
			<path fill="#53BFD0" d="M186.274,70.935c-3.428,0.348-9.142,5.791-10.597,8.889c-0.248,0.465-0.406,1.07-0.383,1.289l0.006,0.072
				c0.215,2.117,11.845,3.445,12.312,8.039l0.006,0.074c0.209,2.779,0.252,8.303-10.689,9.412l-1.459,0.146
				c-7.105,0.426-9.5-2.133-9.789-4.977c-0.297-2.92,1.719-6.293,3.178-7.178l0.008,0.072c0.281,2.773,4.324,3.395,7.605,3.064
				c2.335-0.238,4.253-0.947,4.171-1.75l-0.014-0.146c-0.975-2.334-13.093-1.916-14.378-9.525l-0.037-0.365
				c-0.584-5.762,8.393-13.893,13.574-14.417c0.656-0.066,1.254,0.021,1.785,0.188c4.666,1.664,7,5.039,7.197,6.271l0.029,0.291
				c0.096,0.949-0.203,1.642-0.203,1.642l-0.256-0.342C187.837,71.071,187.149,70.847,186.274,70.935z"/>
			<path fill="#53BFD0" d="M196.415,94.671c-4.271-0.008-7.188-1.852-7.533-5.279c-0.09-0.877,0.033-1.846,0.289-2.979l4.766-19.127
				c0,0,0.422-1.665,0.311-2.759c-0.029-0.292-0.131-0.575-0.291-0.706l-0.088-0.139c-0.021-0.22,0.457-0.563,1.26-0.644
				c1.535-0.155,4.561,0.643,8.514,4.736c0.658,0.671,0.943,1.306,1.018,2.035c0.064,0.657-0.086,1.335-0.289,2.242
				c-1.09,3.793-3.809,11.881-3.498,14.945c0.074,0.729,0.418,1.211,0.928,1.158l0.072-0.008c3.918-0.617,7.295-12.383,7.455-12.988
				l2.699-0.273c-1.512,4.723-5.682,18.854-14.508,19.746L196.415,94.671z M196.394,58.784l-0.072-0.73
				c-0.26-2.554,0.275-3.786,0.461-7.786c0.059-0.889-0.016-1.618-0.076-2.201c-0.059-0.584-0.096-0.949,0.027-1.183
				c0.189-0.313,0.541-0.497,1.051-0.548c2.844-0.289,9.982,3.262,10.367,7.055c0.045,0.438,0.008,0.811-0.098,1.189
				c-0.924,3.264-2.066,4.336-2.252,6.861c-0.021,0.519-0.576,0.869-1.307,0.943C201.942,62.643,196.651,60.599,196.394,58.784z"/>
			<path fill="#53BFD0" d="M210.575,110.037c-0.141-1.383,0.018-2.727,0.41-3.945c0.168-0.533,0.205-0.904,0.182-1.123
				c-0.037-0.365-0.197-0.496-0.637-0.453c-0.436,0.045-1.072,0.33-1.85,0.631c-13.193,5.096-33.537,14.526-72.125,18.436
				c-14.663,1.484-26.072,1.609-30.358-0.686c-2.489-1.295-3.936-3.211-4.202-5.836c-0.251-2.482,0.54-5.584,2.577-9.475
				l0.037,0.365c0.436,4.303,6.909,4.898,17.079,4.902c6.858,0.043,15.423-0.531,24.905-1.492
				c37.13-3.76,47.162-9.493,64.906-14.019c1.939-0.49,3.451-0.865,4.523-1.195l0.072-0.008c1.24-0.125,2.395,2.559,2.49,2.771
				c-0.459,1.299-2.506,7.991-2.211,10.907c0.088,0.875,0.367,1.438,1.025,1.371l0.072-0.008c1.166-0.117,2.898-8.474,4.158-14.938
				c0.652-3.75,1.531-7.451,2.111-11.193c-0.344,0.256-3.684,7.301-7.84,7.721c-0.512,0.053-1.029,0.031-1.563-0.137
				c-6.678-1.902-8.006-9.211-8.264-11.027l-0.016-0.146c-0.68-6.711,8.262-18.82,14.154-19.564l0.146-0.016
				c2.482-0.251,5.693,1.635,8.023,3.536c0.217-0.758,0.631-2.495,0.52-3.59c-0.029-0.292-0.131-0.577-0.293-0.708
				c-0.006-0.072-0.078-0.064-0.086-0.138c-0.023-0.22,0.459-0.562,1.262-0.643c1.533-0.155,4.559,0.642,8.512,4.737
				c0.658,0.67,0.943,1.305,1.018,2.035c0.066,0.656-0.088,1.335-0.289,2.238c-2.535,8.437-3.969,16.837-5.445,25.537
				c-1.695,9.458-4.498,20.353-14.127,21.33C213.325,116.836,210.929,113.542,210.575,110.037z M227.396,69.498
				c-0.889-0.795-1.934-1.648-2.744-1.64c-1.604,0.163-6.063,11.448-5.76,14.438c0.051,0.512,0.227,0.789,0.592,0.752l0.074-0.008
				c1.896-0.191,4.57-3.631,5.742-5.152L227.396,69.498z"/>
			<path fill="#53BFD0" d="M266.833,90.706c-6.15-0.336-8.363-3.279-8.77-7.291c-0.223-2.191,0.109-4.729,0.66-7.291
				c0.711-3.168,0.959-4.371,0.906-4.883c-0.021-0.217-0.104-0.283-0.256-0.34l-0.072,0.006c-0.949,0.096-8.191,7.168-7.52,13.807
				l0.061,0.584c0.506,2.084,1.383,3.471,1.857,3.791c0.314,0.189,0.41,0.4,0.424,0.547c0.029,0.293-0.4,0.408-0.4,0.408
				l-0.584,0.061c-3.502,0.354-12.156-1.424-12.754-6.596l-0.021-0.219c-0.502-4.961,2.512-15.214,3.84-20.285
				c0,0,0.34-1.73,0.236-2.754c-0.029-0.291-0.059-0.582-0.219-0.714l-0.088-0.138c-0.016-0.146,0.393-0.48,1.195-0.563
				c1.604-0.162,4.553,0.568,8.506,4.664c0.656,0.671,1.021,1.371,1.098,2.1c0.125,1.241-0.479,2.554-0.93,3.926
				c3.625-6.41,8.125-12.172,10.023-12.364c0,0,5.967,5.071,8.535,5.695c0.074-0.007,0.16,0.13,0.176,0.276
				c0.184,1.824-4.508,12.25-3.939,17.865c0.125,1.24,0.52,2.232,1.244,2.824c0.08,0.066,0.152,0.059,0.225,0.049
				c1.607-0.162,5.676-13.103,6.25-14.708l3.211-0.325c-0.539,1.968-5.381,21.105-12.455,21.822L266.833,90.706z"/>
		</g>
	</g>
</g>
<g>
	<path fill="#53BFD0" d="M50.193,156.369c-1.893,0.11-2.737-0.776-2.812-2.048c-0.111-1.893,1.554-4.684,4.226-6.281l0.375-1.801
		c-0.14,0.08-1.307,2.336-2.696,2.417c-0.167,0.01-0.337-0.004-0.508-0.065c-2.158-0.717-2.491-3.125-2.526-3.724l-0.003-0.048
		c-0.128-2.204,2.965-6.04,4.903-6.201l0.048-0.003c0.792-0.046,1.815,0.615,2.575,1.269c0.058-0.244,0.24-0.832,0.221-1.167
		c-0.007-0.12-0.036-0.19-0.087-0.235l-0.026-0.047c-0.003-0.049,0.136-0.153,0.399-0.168c0.527-0.031,1.48,0.251,2.717,1.645
		c0.205,0.229,0.313,0.438,0.328,0.679c0.012,0.216-0.047,0.435-0.15,0.729c-0.514,1.496-0.909,2.963-1.282,4.402
		c1.979-1.533,2.338-2.805,2.549-3.298l0.959-0.056c-0.809,2.211-1.831,3.641-3.816,4.646c-0.79,3.363-1.104,9.104-5.368,9.354
		L50.193,156.369z M51.259,149.502c-1.264,1.012-2.03,3.533-1.965,4.659c0.02,0.336,0.129,0.545,0.296,0.535l0.024-0.001
		C49.999,154.672,50.706,151.963,51.259,149.502z M52.569,143.945l0.802-2.74c-0.256-0.273-0.586-0.567-0.875-0.574
		c-0.503,0.029-2.117,3.682-2.06,4.664c0.009,0.145,0.062,0.237,0.158,0.231l0.023-0.001
		C51.241,145.489,52.187,144.399,52.569,143.945z"/>
	<path fill="#53BFD0" d="M64.107,148.031c-1.374-0.063-2.3-0.683-2.366-1.81c-0.017-0.287,0.037-0.602,0.137-0.97l1.259-4.376
		c-0.896,1.543-2.243,2.342-3.154,2.396c-0.144,0.009-0.287,0.017-0.41-0.024c-0.854-0.215-1.162-0.965-1.211-1.805
		c-0.052-0.887,0.18-1.861,0.432-2.477c0.188-0.493,0.224-0.711,0.218-0.807c-0.006-0.097-0.029-0.096-0.054-0.094l-0.048,0.003
		c-0.024,0.001-0.024,0.001-0.025-0.022c0.014-0.169,0.181-0.202,0.323-0.234l0.311-0.043c1.03-0.06,2.883,0.385,2.938,0.911
		c0.004,0.072-0.399,0.984-0.377,1.367c0.007,0.12,0.06,0.189,0.155,0.185c0.072-0.005,0.166-0.035,0.305-0.139
		c0.439-0.289,0.782-1.008,0.848-1.131c0.086-0.174,0.227-0.229,0.395-0.239c0.814-0.048,2.413,1.397,2.721,1.716
		c0.207,0.252,0.315,0.461,0.329,0.701c0.013,0.217-0.046,0.437-0.15,0.707c-0.388,1.178-1.147,3.001-1.101,3.791
		c0.015,0.264,0.119,0.401,0.335,0.389l0.023-0.001c1.124-0.114,2.449-4.183,2.449-4.183l1.006-0.059
		c0.006,0.504-1.977,6.078-4.972,6.253L64.107,148.031z"/>
	<path fill="#53BFD0" d="M75.964,147.29c-1.211-0.145-1.993-0.771-2.053-1.802c-0.01-0.168,0.004-0.337,0.04-0.532
		c-0.749,1.174-1.713,2.36-2.672,2.416c-0.144,0.008-0.313-0.006-0.46-0.068c-2.158-0.717-2.491-3.125-2.55-3.723l-0.003-0.047
		c-0.129-2.205,2.965-6.041,4.903-6.201l0.048-0.004c0.815-0.047,1.839,0.615,2.575,1.27c0.081-0.246,0.241-0.809,0.22-1.168
		c-0.005-0.096-0.035-0.19-0.086-0.235l-0.025-0.022c-0.004-0.072,0.158-0.179,0.422-0.193c0.503-0.029,1.481,0.251,2.717,1.645
		c0.205,0.229,0.29,0.439,0.305,0.68c0.012,0.217-0.048,0.436-0.126,0.729c-0.434,1.229-1.52,4.056-1.459,5.086
		c0.014,0.24,0.095,0.379,0.262,0.369l0.024-0.002c1.122-0.137,2.487-4.352,2.487-4.352l1.054-0.062
		c-0.584,2.343-2.217,6.093-4.996,6.255C76.399,147.337,76.182,147.326,75.964,147.29z M74.612,142.658l0.801-2.74
		c-0.28-0.272-0.609-0.565-0.875-0.574c-0.526,0.03-2.143,3.659-2.085,4.642c0.01,0.168,0.063,0.262,0.184,0.254l0.023-0.001
		C73.283,144.202,74.206,143.114,74.612,142.658z"/>
	<path fill="#53BFD0" d="M82.007,154.463c-1.126,0.065-3.979-0.633-4.129-2.355l-0.002-0.049c-0.141-2.396,3.107-11,3.822-13.999
		c0,0,0.159-0.562,0.139-0.923c-0.006-0.094-0.035-0.189-0.086-0.234l-0.025-0.022c-0.004-0.072,0.134-0.177,0.397-0.191
		c0.503-0.03,1.481,0.251,2.717,1.644c0.206,0.229,0.313,0.414,0.325,0.631c1.335-1.425,2.855-2.57,3.431-2.604
		c0,0,1.881,1.741,2.687,1.958c0.024,0,0.051,0.046,0.056,0.118c0.031,0.551-0.765,2.978-0.844,3.271
		c0.608-0.3,1.187-0.693,1.515-1.242l1.126-0.066c0,0-1.179,1.633-2.999,2.579c-0.627,2.032-1.354,3.999-1.976,4.035l-0.024,0.001
		c-2.019,0.022-3.912-0.709-5.077-1.314c-0.531,1.619-1.014,3.233-1.45,4.822c-0.159,0.562-0.2,1.094-0.173,1.572
		c0.066,1.127,0.543,1.891,0.745,2.048c0.1,0.067,0.127,0.113,0.13,0.161c0.005,0.096-0.136,0.152-0.136,0.152L82.007,154.463z
		 M86.645,142.483c0.176-0.707,0.282-1.362,0.267-1.626c-0.003-0.048-0.006-0.096-0.029-0.095l-0.098-0.018
		c-0.455,0.027-2.271,0.637-2.852,2.233C84.782,142.688,85.856,142.554,86.645,142.483z M86.016,144.467l0.292-0.762
		c-1.269,0.099-1.689,0.291-1.825,0.442c-0.068,0.077-0.111,0.151-0.107,0.224c0.016,0.264,0.531,0.449,0.986,0.423
		C85.65,144.778,85.909,144.69,86.016,144.467z"/>
	<path fill="#53BFD0" d="M99.406,148.159c-2.03-0.604-2.392-1.856-2.432-2.527c-0.014-0.239,0.024-0.41,0.024-0.41
		s1.52-4.85,1.478-5.568c-0.001-0.025-0.004-0.072-0.027-0.07l-0.024,0.002c-0.287,0.016-1.812,1.092-2.921,2.262
		c-0.158,0.586-0.319,1.533-0.269,2.42c0.043,0.719,0.226,1.381,0.702,1.714c0.1,0.067,0.128,0.137,0.131,0.185
		c0.006,0.096-0.137,0.129-0.137,0.129l-0.191,0.011c-1.175,0.068-3.98-0.633-4.104-2.333l-0.003-0.047
		c-0.142-2.42,2.476-9.066,3.19-12.064c0,0,0.16-0.563,0.139-0.922c-0.005-0.096-0.035-0.19-0.086-0.235l-0.025-0.022
		c-0.004-0.072,0.134-0.176,0.398-0.191c0.526-0.031,1.504,0.248,2.74,1.643c0.205,0.229,0.289,0.44,0.304,0.68
		c0.012,0.216-0.047,0.437-0.126,0.729c-0.863,2.503-1.136,3.193-1.922,5.787c1.451-1.912,3.246-4.108,3.917-4.148
		c0,0,1.582,1.975,2.329,2.004c0.072-0.004,0.101,0.066,0.107,0.187c0.065,1.126-2.147,6.881-2.063,8.319
		c0.01,0.167,0.039,0.262,0.114,0.305l0.098,0.02c0.862-0.051,2.877-5.891,2.978-6.232l0.887-0.053c0,0-2.183,8.326-4.771,8.477
		C99.698,148.211,99.552,148.198,99.406,148.159z"/>
	<path fill="#53BFD0" d="M105.277,145.364c-1.398-0.064-2.325-0.707-2.392-1.834c-0.017-0.287,0.037-0.603,0.137-0.969l1.826-6.189
		c0,0,0.161-0.539,0.14-0.897c-0.006-0.097-0.035-0.19-0.086-0.235l-0.027-0.047c-0.004-0.071,0.158-0.177,0.422-0.192
		c0.504-0.029,1.482,0.272,2.718,1.669c0.207,0.227,0.29,0.438,0.305,0.678c0.013,0.216-0.046,0.438-0.126,0.729
		c-0.409,1.227-1.411,3.833-1.353,4.839c0.015,0.24,0.12,0.402,0.288,0.393l0.023-0.002c1.29-0.147,2.559-3.947,2.619-4.144
		l0.887-0.052c-0.561,1.523-2.121,6.086-5.021,6.256L105.277,145.364z M105.77,133.625l-0.015-0.239
		c-0.049-0.839,0.145-1.234,0.261-2.539c0.031-0.291,0.017-0.53,0.006-0.723c-0.012-0.19-0.019-0.311,0.025-0.386
		c0.066-0.1,0.183-0.155,0.352-0.165c0.934-0.055,3.22,1.207,3.292,2.452c0.009,0.145-0.008,0.267-0.049,0.388
		c-0.348,1.055-0.736,1.39-0.833,2.213c-0.015,0.17-0.2,0.277-0.439,0.291C107.531,134.965,105.829,134.223,105.77,133.625z"/>
	<path fill="#53BFD0" d="M116.307,136.639c-1.126,0.066-3.07,1.768-3.59,2.76c-0.087,0.148-0.148,0.346-0.144,0.418l0.001,0.023
		c0.041,0.693,3.826,1.291,3.915,2.799l0.001,0.025c0.029,0.912-0.034,2.719-3.628,2.929l-0.479,0.028
		c-2.329,0.039-3.077-0.83-3.132-1.766c-0.056-0.957,0.65-2.033,1.14-2.303l0.001,0.025c0.054,0.91,1.367,1.17,2.445,1.107
		c0.767-0.045,1.404-0.251,1.389-0.515l-0.003-0.049c-0.285-0.776-4.255-0.81-4.569-3.315l-0.007-0.119
		c-0.11-1.893,2.938-4.428,4.64-4.527c0.216-0.012,0.411,0.024,0.582,0.087c1.503,0.61,2.219,1.746,2.267,2.151l0.005,0.096
		c0.019,0.313-0.089,0.535-0.089,0.535l-0.079-0.116C116.816,136.708,116.595,136.624,116.307,136.639z"/>
	<path fill="#53BFD0" d="M119.898,144.629c-1.001-0.254-2.462-0.986-2.555-2.158l-0.006-0.096c-0.114-1.967,1.274-5.773,1.95-7.785
		l-0.406,0.049c-1.893,0.109-3.968-0.851-4.061-2.432c-0.029-0.503,0.152-1.091,0.621-1.72c0.245-0.327,0.382-0.456,0.431-0.458
		c0.023-0.002,0.024,0.023,0.026,0.047c0.007,0.119-0.053,0.34-0.071,0.437l-0.032,0.267c0.055,0.934,1.758,1.7,3.963,1.571
		l0.239-0.014c0.178-0.659,0.356-1.295,0.488-1.928c0,0,0.158-0.587,0.139-0.921c-0.005-0.098-0.034-0.167-0.061-0.215l-0.026-0.046
		c-0.005-0.072,0.134-0.175,0.397-0.19c0.503-0.029,1.482,0.273,2.718,1.668c0.229,0.227,0.316,0.463,0.328,0.678
		c0.013,0.216-0.045,0.459-0.149,0.73c0.55-0.057,1.075-0.111,1.65-0.145l0.623-0.037c0.194,0.037,0.283,0.32,0.305,0.681
		c0.04,0.695-0.17,1.62-0.386,1.634c-0.024,0.001-0.073-0.021-0.101-0.067c-0.132-0.208-0.593-0.278-1.24-0.239
		c-0.455,0.025-1.004,0.105-1.574,0.211c-0.721,2.063-1.414,4.193-1.939,6.316c-0.214,0.878-0.272,1.507-0.247,1.938
		c0.033,0.574,0.239,0.804,0.551,0.784c0.91-0.053,2.719-2.442,3.097-4.604l0.982-0.057c-0.629,2.393-1.641,6.082-4.42,6.244
		C120.75,144.795,120.337,144.748,119.898,144.629z"/>
	<path fill="#53BFD0" d="M125.545,143.77c-1.07-0.635-1.576-1.471-1.64-2.549c-0.032-0.551,0.076-1.182,0.251-1.891
		c0.703-2.781,3.003-5.393,5.769-5.793l0.788-0.095c1.51-0.088,2.376,0.342,2.45,1.612c0.023,0.407-0.044,0.891-0.179,1.477
		c-0.345,1.512-1.933,4.369-3.802,4.479c-0.287,0.017-0.604-0.037-0.925-0.188l0.006,0.096c0.048,0.815,0.348,1.424,1.123,1.521
		l0.289,0.008c1.965-0.115,4.77-3.957,4.74-4.461l1.103-0.064c-1.134,2.832-4.175,6.327-7.362,6.514
		C127.294,144.487,126.394,144.297,125.545,143.77z M130.567,135.47c-0.006-0.095-0.032-0.142-0.08-0.138l-0.071,0.027
		c-0.602,0.396-1.592,2.377-1.994,4.132c0.051,0.045,0.101,0.065,0.172,0.062C129.336,139.51,130.61,136.213,130.567,135.47z"/>
	<path fill="#53BFD0" d="M136.262,142.448l-0.049-0.43c-0.148-2.541,2.209-4.169,4.163-5.293c-0.439-0.936-0.688-1.883-0.74-2.794
		c-0.147-2.516,1.169-4.685,3.936-5.062l0.406-0.049c2.037-0.118,3.015,0.979,3.1,2.439c0.108,1.846-1.217,4.28-3.757,5.654
		l0.001,0.024c0.007,0.118,0.586,0.976,1.432,1.862c0.455-0.434,1.347-1.641,1.299-2.455c-0.019-0.311-0.177-0.567-0.547-0.713
		c0.068-0.076,0.281-0.138,0.544-0.152c0.936-0.055,2.666,0.349,2.754,1.858c0.045,0.767-0.351,1.823-1.494,3.237
		c0.294,0.079,0.585,0.135,0.849,0.119c0.431-0.025,0.832-0.169,1.221-0.506l0.002,0.049c0.027,0.455,0.144,3.671-2.086,3.801
		l-0.191,0.012c-0.938-0.018-1.772-0.306-2.553-0.91c-1.292,0.941-3.281,1.875-4.982,1.975
		C137.962,145.209,136.603,144.568,136.262,142.448z M142.537,140.783c-0.448-0.671-0.879-1.464-1.343-2.398
		c-1.263,1.013-1.828,2.031-1.789,2.702c0.027,0.479,0.356,0.748,0.932,0.714C140.863,141.77,141.615,141.461,142.537,140.783z
		 M145.107,132.098c-0.033-0.575-0.346-0.99-0.897-0.958c-0.216,0.013-0.429,0.073-0.685,0.208c-1.029,0.492-1.39,1.74-1.332,2.723
		c0.035,0.6,0.21,1.117,0.486,1.317C144.372,134.737,145.168,133.152,145.107,132.098z"/>
	<path fill="#53BFD0" d="M155.589,142.425c-1.398-0.063-2.325-0.706-2.392-1.833c-0.017-0.287,0.038-0.603,0.137-0.969l1.826-6.189
		c0,0,0.161-0.539,0.14-0.897c-0.006-0.097-0.035-0.19-0.086-0.235l-0.026-0.047c-0.004-0.072,0.158-0.178,0.421-0.192
		c0.504-0.029,1.483,0.272,2.719,1.669c0.206,0.227,0.29,0.438,0.304,0.678c0.013,0.216-0.046,0.438-0.125,0.729
		c-0.41,1.226-1.412,3.833-1.354,4.839c0.015,0.24,0.12,0.402,0.288,0.393l0.023-0.002c1.29-0.147,2.559-3.947,2.619-4.145
		l0.887-0.051c-0.56,1.523-2.121,6.086-5.02,6.256L155.589,142.425z M156.083,130.687l-0.015-0.239
		c-0.049-0.839,0.145-1.234,0.261-2.539c0.031-0.291,0.018-0.531,0.006-0.723c-0.011-0.191-0.018-0.311,0.025-0.386
		c0.066-0.101,0.184-0.155,0.352-0.165c0.935-0.055,3.22,1.207,3.292,2.451c0.009,0.145-0.008,0.267-0.049,0.389
		c-0.348,1.055-0.736,1.389-0.833,2.213c-0.014,0.17-0.199,0.276-0.439,0.291C157.843,132.028,156.141,131.286,156.083,130.687z"/>
	<path fill="#53BFD0" d="M161.091,141.959c-0.885-0.332-1.761-0.932-1.845-1.936l-0.004-0.072c-0.072-1.246,0.505-3.299,0.871-4.451
		c0.946-3.132,1.708-4.499,2.439-7.619c0,0,0.158-0.587,0.137-0.946c-0.006-0.096-0.033-0.167-0.06-0.213l-0.026-0.046
		c-0.005-0.072,0.135-0.152,0.374-0.166c0.527-0.031,1.506,0.248,2.74,1.644c0.206,0.228,0.314,0.438,0.328,0.677
		c0.013,0.217-0.046,0.437-0.148,0.73c-1.091,3.165-2.01,5.117-2.826,8.437c-0.251,1.048-0.353,1.775-0.328,2.206
		c0.022,0.384,0.152,0.545,0.32,0.535c0.671-0.039,2.167-2.41,2.905-4.594l1.103-0.064c-0.952,2.219-1.912,5.953-4.572,6.109
		C162.092,142.213,161.607,142.145,161.091,141.959z"/>
	<path fill="#53BFD0" d="M167.177,141.604c-0.886-0.332-1.762-0.932-1.845-1.936l-0.004-0.072c-0.073-1.246,0.504-3.299,0.869-4.451
		c0.948-3.131,1.71-4.499,2.441-7.619c0,0,0.157-0.586,0.137-0.945c-0.006-0.096-0.033-0.168-0.061-0.214l-0.026-0.046
		c-0.005-0.072,0.135-0.152,0.375-0.166c0.527-0.031,1.505,0.249,2.74,1.644c0.205,0.228,0.313,0.438,0.328,0.678
		c0.013,0.216-0.047,0.436-0.149,0.729c-1.09,3.166-2.01,5.118-2.826,8.437c-0.251,1.048-0.353,1.776-0.327,2.206
		c0.022,0.385,0.151,0.545,0.319,0.535c0.671-0.039,2.167-2.41,2.905-4.594l1.103-0.064c-0.952,2.219-1.912,5.953-4.572,6.109
		C168.177,141.858,167.693,141.79,167.177,141.604z"/>
	<path fill="#53BFD0" d="M178.773,141.335c-1.351-0.089-1.666-0.528-1.731-1.653l-0.019-0.72c-0.669,1.288-1.614,2.401-2.788,2.47
		c-1.847,0.084-2.513-1.03-2.6-2.517c-0.125-2.133,0.932-5.031,1.294-6.255c0,0,0.157-0.586,0.138-0.922
		c-0.006-0.096-0.033-0.166-0.061-0.213l-0.024-0.021c-0.003-0.049,0.115-0.08,0.307-0.091c0.768-0.044,2.874,0.216,3.185,0.583
		c0.155,0.208,0.238,0.395,0.25,0.588c0.013,0.215-0.046,0.459-0.148,0.753c-0.203,0.638-1.906,4.007-1.823,5.419
		c0.02,0.338,0.129,0.57,0.42,0.602l0.023-0.002c0.48-0.027,1.983-3.096,2.229-3.832l0.92-3.18c0,0,0.161-0.537,0.14-0.896
		c-0.005-0.096-0.034-0.191-0.086-0.236l-0.024-0.021c-0.005-0.072,0.158-0.18,0.42-0.195c0.504-0.029,1.483,0.252,2.718,1.646
		c0.205,0.229,0.313,0.438,0.328,0.678c0.012,0.217-0.049,0.436-0.15,0.73c-0.434,1.228-1.465,3.739-1.411,4.674
		c0.013,0.216,0.094,0.355,0.262,0.346l0.023-0.002c1.124-0.113,2.729-3.934,2.729-3.934l1.053-0.062c0,0-2.289,6.097-5.307,6.272
		L178.773,141.335z"/>
	<path fill="#53BFD0" d="M189.979,132.338c-1.125,0.065-3.07,1.767-3.59,2.758c-0.086,0.149-0.146,0.346-0.143,0.418l0.002,0.023
		c0.041,0.695,3.824,1.292,3.914,2.801v0.024c0.029,0.913-0.033,2.72-3.627,2.929l-0.479,0.028c-2.33,0.04-3.078-0.831-3.133-1.765
		c-0.055-0.959,0.65-2.035,1.141-2.303v0.023c0.055,0.91,1.367,1.171,2.445,1.107c0.768-0.044,1.404-0.25,1.389-0.514l-0.002-0.049
		c-0.287-0.775-4.256-0.809-4.57-3.314l-0.008-0.12c-0.109-1.893,2.939-4.427,4.641-4.526c0.217-0.014,0.41,0.023,0.582,0.086
		c1.502,0.61,2.219,1.746,2.266,2.152l0.006,0.096c0.018,0.311-0.088,0.534-0.088,0.534l-0.08-0.116
		C190.488,132.406,190.266,132.321,189.979,132.338z"/>
	<path fill="#53BFD0" d="M193.57,140.329c-1.002-0.256-2.461-0.987-2.555-2.16l-0.006-0.096c-0.115-1.965,1.273-5.771,1.949-7.784
		l-0.406,0.048c-1.893,0.111-3.967-0.85-4.061-2.431c-0.029-0.503,0.154-1.091,0.621-1.72c0.246-0.326,0.383-0.455,0.43-0.458
		c0.025-0.001,0.025,0.022,0.027,0.046c0.008,0.121-0.053,0.34-0.07,0.438l-0.033,0.267c0.055,0.934,1.758,1.7,3.963,1.571
		l0.24-0.014c0.178-0.659,0.357-1.295,0.488-1.928c0,0,0.158-0.586,0.139-0.922c-0.006-0.096-0.033-0.166-0.061-0.213l-0.027-0.047
		c-0.004-0.072,0.133-0.176,0.396-0.191c0.504-0.029,1.484,0.275,2.719,1.668c0.23,0.229,0.316,0.465,0.328,0.68
		c0.014,0.215-0.045,0.459-0.148,0.729c0.549-0.055,1.074-0.109,1.65-0.144l0.623-0.036c0.193,0.036,0.283,0.319,0.305,0.68
		c0.039,0.695-0.17,1.621-0.387,1.633c-0.023,0.002-0.072-0.02-0.1-0.066c-0.133-0.209-0.594-0.277-1.24-0.24
		c-0.455,0.027-1.004,0.107-1.574,0.212c-0.723,2.063-1.414,4.194-1.939,6.317c-0.213,0.877-0.273,1.506-0.248,1.938
		c0.033,0.574,0.24,0.803,0.551,0.785c0.91-0.053,2.719-2.443,3.098-4.604l0.982-0.059c-0.629,2.393-1.641,6.082-4.42,6.244
		C194.422,140.495,194.01,140.446,193.57,140.329z"/>
	<path fill="#53BFD0" d="M203.834,139.872c-1.375-0.063-2.301-0.683-2.367-1.809c-0.016-0.288,0.039-0.603,0.137-0.971l1.26-4.375
		c-0.896,1.542-2.242,2.342-3.154,2.395c-0.145,0.01-0.287,0.018-0.41-0.023c-0.854-0.215-1.162-0.966-1.211-1.805
		c-0.053-0.887,0.18-1.861,0.432-2.477c0.188-0.494,0.223-0.711,0.219-0.807c-0.006-0.097-0.031-0.096-0.055-0.094l-0.047,0.002
		c-0.023,0.002-0.023,0.002-0.025-0.021c0.014-0.17,0.18-0.203,0.322-0.235l0.309-0.042c1.031-0.061,2.885,0.385,2.939,0.91
		c0.004,0.072-0.398,0.984-0.377,1.367c0.008,0.121,0.059,0.189,0.154,0.185c0.072-0.005,0.168-0.034,0.305-0.138
		c0.441-0.29,0.783-1.008,0.85-1.132c0.086-0.174,0.225-0.229,0.393-0.239c0.816-0.047,2.414,1.398,2.721,1.717
		c0.207,0.252,0.316,0.461,0.33,0.701c0.012,0.217-0.047,0.436-0.15,0.707c-0.389,1.177-1.146,3-1.102,3.791
		c0.016,0.264,0.119,0.401,0.334,0.389l0.025-0.002c1.123-0.113,2.449-4.182,2.449-4.182l1.006-0.059
		c0.006,0.504-1.977,6.078-4.973,6.253L203.834,139.872z"/>
	<path fill="#53BFD0" d="M215.691,139.131c-1.211-0.145-1.992-0.771-2.053-1.803c-0.01-0.168,0.004-0.337,0.041-0.531
		c-0.748,1.174-1.715,2.359-2.672,2.416c-0.145,0.008-0.313-0.006-0.461-0.069c-2.158-0.716-2.49-3.124-2.549-3.722l-0.004-0.048
		c-0.129-2.204,2.965-6.04,4.904-6.201l0.047-0.003c0.814-0.047,1.84,0.614,2.574,1.27c0.082-0.246,0.242-0.809,0.221-1.168
		c-0.006-0.096-0.035-0.191-0.086-0.236l-0.025-0.021c-0.004-0.072,0.158-0.179,0.42-0.194c0.504-0.029,1.484,0.251,2.719,1.646
		c0.205,0.229,0.289,0.439,0.305,0.68c0.012,0.216-0.049,0.436-0.127,0.729c-0.434,1.229-1.518,4.055-1.459,5.086
		c0.016,0.24,0.094,0.379,0.262,0.369l0.025-0.002c1.121-0.137,2.486-4.352,2.486-4.352l1.055-0.063
		c-0.584,2.344-2.217,6.093-4.996,6.255C216.127,139.178,215.91,139.167,215.691,139.131z M214.338,134.5l0.801-2.741
		c-0.279-0.271-0.607-0.565-0.873-0.574c-0.529,0.031-2.143,3.66-2.084,4.643c0.01,0.168,0.063,0.261,0.182,0.254l0.023-0.002
		C213.01,136.043,213.932,134.956,214.338,134.5z"/>
	<path fill="#53BFD0" d="M222.131,138.661c-1.002-0.255-2.463-0.986-2.557-2.159l-0.004-0.096c-0.115-1.966,1.273-5.772,1.949-7.784
		l-0.406,0.048c-1.893,0.11-3.969-0.851-4.061-2.431c-0.029-0.504,0.152-1.092,0.621-1.721c0.244-0.326,0.381-0.455,0.43-0.458
		c0.023-0.001,0.025,0.022,0.027,0.046c0.006,0.121-0.053,0.341-0.07,0.438l-0.035,0.268c0.055,0.934,1.76,1.699,3.965,1.57
		l0.238-0.014c0.178-0.658,0.357-1.295,0.49-1.928c0,0,0.156-0.586,0.137-0.921c-0.004-0.097-0.033-0.167-0.061-0.214l-0.025-0.047
		c-0.004-0.072,0.133-0.175,0.396-0.19c0.504-0.029,1.484,0.274,2.719,1.668c0.23,0.228,0.314,0.464,0.328,0.679
		c0.012,0.215-0.045,0.459-0.15,0.729c0.551-0.056,1.076-0.11,1.652-0.144l0.623-0.037c0.193,0.037,0.281,0.32,0.303,0.68
		c0.041,0.695-0.168,1.621-0.385,1.634c-0.023,0.001-0.074-0.021-0.102-0.067c-0.133-0.208-0.592-0.277-1.238-0.24
		c-0.455,0.027-1.006,0.107-1.576,0.213c-0.721,2.063-1.412,4.193-1.939,6.316c-0.213,0.877-0.271,1.506-0.246,1.938
		c0.033,0.574,0.238,0.804,0.551,0.785c0.91-0.053,2.719-2.443,3.096-4.604l0.982-0.058c-0.629,2.392-1.639,6.082-4.42,6.244
		C222.98,138.827,222.57,138.778,222.131,138.661z"/>
	<path fill="#53BFD0" d="M232.393,138.205c-1.375-0.063-2.299-0.683-2.365-1.81c-0.018-0.287,0.037-0.602,0.135-0.97l1.26-4.376
		c-0.896,1.543-2.242,2.342-3.154,2.396c-0.143,0.009-0.287,0.017-0.41-0.024c-0.854-0.215-1.162-0.965-1.211-1.805
		c-0.053-0.887,0.18-1.861,0.432-2.477c0.188-0.493,0.225-0.711,0.219-0.807s-0.029-0.096-0.055-0.094l-0.047,0.003
		c-0.023,0.001-0.023,0.001-0.025-0.022c0.014-0.169,0.18-0.202,0.322-0.234l0.311-0.042c1.029-0.061,2.883,0.384,2.939,0.91
		c0.004,0.072-0.4,0.984-0.379,1.367c0.008,0.12,0.059,0.189,0.154,0.185c0.072-0.005,0.168-0.035,0.307-0.139
		c0.439-0.289,0.781-1.008,0.848-1.131c0.086-0.174,0.227-0.229,0.393-0.239c0.816-0.048,2.414,1.397,2.721,1.716
		c0.207,0.252,0.316,0.461,0.33,0.701c0.012,0.217-0.047,0.437-0.15,0.707c-0.389,1.178-1.146,3.001-1.102,3.791
		c0.016,0.264,0.119,0.402,0.334,0.389l0.025-0.001c1.123-0.114,2.449-4.183,2.449-4.183l1.006-0.059
		c0.006,0.504-1.977,6.078-4.973,6.254L232.393,138.205z"/>
	<path fill="#53BFD0" d="M238.342,137.594c-1.396-0.064-2.324-0.707-2.391-1.834c-0.018-0.287,0.037-0.603,0.137-0.969l1.826-6.189
		c0,0,0.16-0.539,0.141-0.897c-0.006-0.097-0.037-0.19-0.088-0.235l-0.025-0.047c-0.004-0.071,0.158-0.177,0.42-0.192
		c0.504-0.029,1.484,0.272,2.719,1.669c0.207,0.227,0.291,0.438,0.305,0.678c0.014,0.216-0.047,0.438-0.125,0.729
		c-0.41,1.227-1.412,3.833-1.354,4.839c0.014,0.24,0.119,0.402,0.289,0.393l0.023-0.002c1.289-0.147,2.557-3.947,2.619-4.144
		l0.885-0.052c-0.559,1.523-2.119,6.086-5.02,6.256L238.342,137.594z M238.834,125.855l-0.014-0.239
		c-0.049-0.839,0.146-1.234,0.262-2.539c0.029-0.291,0.016-0.53,0.004-0.723c-0.01-0.19-0.018-0.311,0.027-0.386
		c0.066-0.101,0.184-0.155,0.352-0.165c0.934-0.055,3.219,1.207,3.291,2.452c0.01,0.145-0.008,0.267-0.049,0.388
		c-0.348,1.055-0.734,1.39-0.832,2.213c-0.014,0.17-0.201,0.277-0.439,0.291C240.596,127.196,238.895,126.454,238.834,125.855z"/>
	<path fill="#53BFD0" d="M243.828,136.864c-1.072-0.658-1.578-1.494-1.641-2.572c-0.033-0.553,0.051-1.182,0.229-1.865
		c0.727-2.783,3.025-5.395,5.791-5.795l0.789-0.095c1.51-0.089,2.377,0.341,2.451,1.612c0.023,0.406-0.045,0.891-0.18,1.477
		l0.004,0.072c0.006,0.072,0.031,0.118,0.082,0.163c0.051,0.021,0.076,0.068,0.078,0.092c0.02,0.335-1.145,1.005-2.055,1.058
		c-0.191,0.012-0.361-0.004-0.508-0.043c-0.342-0.101-0.496-0.283-0.51-0.523c-0.039-0.646,0.773-1.583,0.754-1.919l-0.002-0.024
		c-0.031-0.117-0.105-0.137-0.176-0.133c-0.072,0.004-0.168,0.033-0.236,0.086c-0.762,0.525-2.262,3.689-2.148,5.631
		c0.045,0.767,0.344,1.351,1.096,1.45c0.098,0.019,0.193,0.013,0.287,0.007c1.967-0.114,4.658-3.83,4.766-4.461l1.104-0.064
		c-1.182,2.857-4.176,6.327-7.363,6.514C245.578,137.58,244.701,137.389,243.828,136.864z"/>
	<path fill="#53BFD0" d="M253.891,136.276c-1.07-0.634-1.576-1.471-1.639-2.549c-0.031-0.551,0.074-1.182,0.25-1.891
		c0.703-2.781,3.002-5.392,5.77-5.793l0.787-0.094c1.51-0.089,2.377,0.341,2.451,1.611c0.023,0.407-0.045,0.891-0.18,1.477
		c-0.344,1.512-1.932,4.369-3.801,4.479c-0.287,0.017-0.604-0.037-0.926-0.188l0.006,0.096c0.049,0.816,0.35,1.424,1.123,1.521
		l0.289,0.008c1.965-0.115,4.77-3.957,4.74-4.461l1.104-0.064c-1.135,2.832-4.176,6.328-7.361,6.514
		C255.641,136.993,254.74,136.803,253.891,136.276z M258.912,127.976c-0.004-0.095-0.031-0.142-0.08-0.138l-0.07,0.027
		c-0.602,0.396-1.592,2.377-1.994,4.132c0.051,0.045,0.1,0.065,0.172,0.062C257.682,132.016,258.957,128.719,258.912,127.976z"/>
</g>
</svg>
