<?xml version="1.0" encoding="UTF-8" standalone="no"?><!DOCTYPE svg PUBLIC "-//W3C//DTD SVG 1.1//EN" "http://www.w3.org/Graphics/SVG/1.1/DTD/svg11.dtd"><svg width="100%" height="100%" viewBox="0 0 29 29" version="1.1" xmlns="http://www.w3.org/2000/svg" xmlns:xlink="http://www.w3.org/1999/xlink" xml:space="preserve" xmlns:serif="http://www.serif.com/" style="fill-rule:evenodd;clip-rule:evenodd;stroke-linejoin:round;stroke-miterlimit:2;"><rect id="Plan-de-travail1" serif:id="Plan de travail1" x="-848" y="-283" width="1920" height="1252" style="fill:none;"/><g id="logo"></g><path id="Mail" d="M24.247,6.558l-19.909,0c-1.269,0 -2.297,1.029 -2.297,2.297l-0,13.782c-0,1.268 1.028,2.297 2.297,2.297l19.909,-0c1.268,-0 2.297,-1.029 2.297,-2.297l-0,-13.782c-0,-1.268 -1.029,-2.297 -2.297,-2.297Zm1.531,15.738l-7.243,-7.242l7.243,-4.615l-0,11.857Zm-21.44,-14.972l19.909,0c0.844,0 1.531,0.687 1.531,1.531l-0,0.677l-10.541,6.717c-0.571,0.363 -1.299,0.352 -1.857,-0.027l-10.574,-7.187l0,-0.18c0,-0.844 0.687,-1.531 1.532,-1.531Zm-1.532,2.636l7.345,4.992l-7.345,7.344l0,-12.336Zm21.441,14.208l-19.909,0c-0.631,0 -1.173,-0.384 -1.408,-0.929l7.856,-7.856l2.164,1.472c0.416,0.282 0.897,0.424 1.378,0.424c0.458,-0 0.916,-0.128 1.32,-0.385l2.236,-1.425l7.77,7.77c-0.234,0.545 -0.777,0.929 -1.407,0.929Z" style="fill:#4dcd90;fill-rule:nonzero;stroke:#4dcd90;stroke-width:0.88px;"/></svg>