<?xml version="1.0" encoding="UTF-8" standalone="no"?><!DOCTYPE svg PUBLIC "-//W3C//DTD SVG 1.1//EN" "http://www.w3.org/Graphics/SVG/1.1/DTD/svg11.dtd"><svg width="100%" height="100%" viewBox="0 0 29 29" version="1.1" xmlns="http://www.w3.org/2000/svg" xmlns:xlink="http://www.w3.org/1999/xlink" xml:space="preserve" xmlns:serif="http://www.serif.com/" style="fill-rule:evenodd;clip-rule:evenodd;stroke-linejoin:round;stroke-miterlimit:2;"><rect id="Plan-de-travail1" serif:id="Plan de travail1" x="-897" y="-283" width="1920" height="1252" style="fill:none;"/><g id="logo"></g><path d="M23.334,6.545c-1.862,-1.863 -3.838,-0.654 -5.08,0.588l-11.712,11.712c-1.241,1.241 -2.532,3.12 -0.588,5.08c1.96,1.96 3.839,0.653 5.08,-0.588l11.712,-11.712c1.242,-1.242 2.451,-3.218 0.588,-5.08Zm-11.189,-0.474l2.483,2.483l2.532,-2.532c0.163,-0.18 0.343,-0.327 0.523,-0.474c-0.262,-1.339 -1.029,-2.548 -3.055,-2.548c-2.025,-0 -2.793,1.209 -3.055,2.548c0.196,0.164 0.376,0.327 0.572,0.523Zm4.999,18.442l-2.532,-2.532l-2.483,2.483c-0.196,0.196 -0.376,0.359 -0.556,0.522c0.278,1.356 1.095,2.614 3.039,2.614c1.96,-0 2.76,-1.258 3.038,-2.614c-0.163,-0.163 -0.327,-0.31 -0.506,-0.473Zm-6.061,-12.431l-4.786,0c-1.747,0 -4.002,0.555 -4.002,3.169c0,1.96 1.258,2.761 2.614,3.038c0.18,-0.163 6.174,-6.207 6.174,-6.207Zm13.248,0.131c-0.147,0.179 -6.175,6.223 -6.175,6.223l4.721,0c1.748,0 4.002,-0.408 4.002,-3.169c0,-2.025 -1.209,-2.793 -2.548,-3.054Zm-11.679,-1.699l0.849,-0.849l-2.483,-2.483c-1.241,-1.242 -3.12,-2.532 -5.08,-0.588c-1.437,1.437 -1.111,2.826 -0.359,3.953c0.245,-0.017 7.073,-0.033 7.073,-0.033Zm3.936,9.49l-0.849,0.85l2.532,2.532c1.241,1.241 3.218,2.434 5.08,0.588c1.388,-1.389 1.061,-2.843 0.294,-4.002c-0.245,0.016 -7.057,0.032 -7.057,0.032Z" style="fill:#4dcd90;fill-rule:nonzero;"/></svg>