<?xml version="1.0" encoding="UTF-8" standalone="no"?><!DOCTYPE svg PUBLIC "-//W3C//DTD SVG 1.1//EN" "http://www.w3.org/Graphics/SVG/1.1/DTD/svg11.dtd"><svg width="100%" height="100%" viewBox="0 0 19 24" version="1.1" xmlns="http://www.w3.org/2000/svg" xmlns:xlink="http://www.w3.org/1999/xlink" xml:space="preserve" xmlns:serif="http://www.serif.com/" style="fill-rule:evenodd;clip-rule:evenodd;stroke-linecap:round;stroke-miterlimit:1;"><g><path d="M9.378,0.093c0,0 -5.103,0.333 -5.893,3.998c-0.745,3.462 -0.648,6.472 -1.262,7.156c-0.614,0.684 -2.368,-0.263 -2.105,0.842c0.263,1.105 2.438,2.262 3.157,1.473c0.719,-0.789 0.965,-0.579 1.894,0.21c0.93,0.789 2.977,1.368 4.328,0.473c1.35,-0.894 2.313,-1.315 3.453,0c1.14,1.316 4.267,-0.631 4.215,-2.156c-0.053,-1.526 1.701,-0.018 1.473,-2.105c-0.228,-2.087 -2.508,-1.806 -2.736,-3.788c-0.228,-1.982 -1.035,-6.191 -6.524,-6.103Z" style="fill:#615050;stroke:#000;stroke-width:0.13px;"/><path d="M4.748,23.886c0,0 1.022,-5.261 1.243,-5.808c0.454,-1.123 1.283,-1.359 1.283,-1.359c0,0 1.56,1.455 3.577,1.262c1.061,-0.101 2.041,-0.751 2.105,-1.473c0.274,-0.066 1.052,0.842 1.052,0.842c0,0 1.293,3.53 1.101,6.248c-0.193,2.718 -10.361,0.288 -10.361,0.288Z" style="fill:#fbc002;"/><path d="M14.496,7.248c0,0 1.142,0.229 1.052,0.842c-0.193,1.315 -1.263,0.842 -1.263,0.842" style="fill:#fff0e5;stroke:#000;stroke-width:0.13px;"/><path d="M4.543,7.248c0,0 -1.142,0.283 -1.052,1.043c0.192,1.628 1.262,1.042 1.262,1.042" style="fill:#fff0e5;stroke:#000;stroke-width:0.13px;"/><path d="M9.168,13.351c0,0 0.282,1.394 -0.011,1.705c-0.294,0.312 -2.094,1.663 -2.094,1.663c0,0 2.083,1.951 3.578,1.683c1.495,-0.267 2.525,-1.683 2.525,-1.683c0,0 -2.179,-1.39 -2.315,-1.684c-0.136,-0.294 -0.127,-1.574 0,-1.894c0.127,-0.32 -1.683,0.21 -1.683,0.21Z" style="fill:#fff0e5;"/><path d="M14.218,4.512c0,0 -0.157,-0.157 -1.473,-1.052c-1.315,-0.894 -5.05,-0.21 -5.05,-0.21l-2.947,2.104c0,0 -1.084,8.14 5.051,7.997c5.976,-0.139 4.419,-8.839 4.419,-8.839Z" style="fill:#fff0e5;stroke:#000;stroke-width:0.13px;"/><ellipse cx="12.745" cy="9.248" rx="0.631" ry="0.316" style="fill:#d86767;stroke:#000;stroke-width:0.13px;"/><ellipse cx="6.558" cy="9.248" rx="0.631" ry="0.316" style="fill:#d86767;stroke:#000;stroke-width:0.13px;"/><path d="M7.695,11.036c0,0 0.997,0.678 1.894,0.632c0.897,-0.046 1.683,-1.053 1.683,-1.053" style="fill:none;stroke:#000;stroke-width:0.13px;"/><path d="M8.392,7.117c0,0 -1.687,-0.264 -2.104,0.171c0.097,0.512 0.21,0.819 0.21,0.819c0,0 0.932,0.602 1.894,0.039c-0.019,-0.708 0,-1.029 0,-1.029Z" style="fill:#fff;"/><path d="M8.392,7.038c0,0 -1.149,-0.375 -2.104,0.21" style="fill:none;stroke:#000;stroke-width:0.13px;"/><path d="M8.392,8.09c0,0 -0.897,0.551 -1.894,0" style="fill:none;stroke:#000;stroke-width:0.13px;"/><circle cx="7.445" cy="7.774" r="0.526" style="stroke:#000;stroke-width:0.13px;"/><path d="M8.603,5.775c0,0 -0.916,-0.955 -2.736,0.211" style="fill:none;stroke:#000;stroke-width:0.13px;"/><path d="M10.718,7.123c0,0 1.687,-0.284 2.105,0.185c-0.098,0.552 -0.211,0.9 -0.211,0.9c0,0 -1.048,0.481 -1.894,0.025c0.02,-0.764 0,-1.11 0,-1.11Z" style="fill:#fff;"/><path d="M10.718,7.144c0,0 1.15,-0.374 2.105,0.211" style="fill:none;stroke:#000;stroke-width:0.13px;"/><path d="M10.718,8.197c0,0 0.897,0.551 1.894,0" style="fill:none;stroke:#000;stroke-width:0.13px;"/><circle cx="11.665" cy="7.881" r="0.526" style="stroke:#000;stroke-width:0.13px;"/><path d="M10.508,5.882c0,0 1.453,-0.674 2.736,0.21" style="fill:none;stroke:#000;stroke-width:0.13px;"/><path d="M11.272,1.356c-1.394,-0.079 -6.024,0.763 -6.524,1.683c-0.5,0.921 -0.631,2.315 -0.631,2.315c0,0 -0.29,3.709 0.631,4.42c0.026,-2.552 0.421,-3.578 0.421,-3.578l0.842,-1.052c0,0 -0.658,1.552 0,1.052c0.658,-0.5 2.499,-3.551 2.946,-2.736c0.447,0.816 1.052,1.052 1.052,1.052c0,0 0.342,-1.71 0.842,-0.841c0.5,0.868 1.684,1.683 1.684,1.683c0,0 0.605,-1.552 0.842,-1.052c0.236,0.5 1.289,2.657 1.052,3.788c-0.237,1.131 0.815,-3.183 0.631,-3.999" style="fill:#615050;"/><path d="M4.117,5.354c0,0 -0.29,3.709 0.631,4.42c0.026,-2.552 0.421,-3.578 0.421,-3.578l0.842,-1.052c0,0 -0.658,1.552 0,1.052c0.658,-0.5 2.499,-3.551 2.946,-2.736c0.447,0.816 1.052,1.052 1.052,1.052c0,0 0.342,-1.71 0.842,-0.841c0.5,0.868 1.684,1.683 1.684,1.683c0,0 0.605,-1.552 0.842,-1.052c0.236,0.5 1.289,2.657 1.052,3.788c-0.237,1.131 0.815,-3.183 0.631,-3.999" style="fill:none;stroke:#000;stroke-width:0.13px;"/><path d="M9.168,13.351c0,0 0.283,1.765 -0.155,1.993c-0.439,0.228 -3.02,1.743 -3.213,3.058c-0.192,1.315 -1.052,5.196 -1.052,5.196" style="fill:none;stroke:#000;stroke-width:0.13px;"/><path d="M10.851,13.351c0,0 -0.263,1.526 0,1.684c0.263,0.158 2.739,1.755 3.157,2.315c0.824,1.105 1.244,6.248 1.244,6.248" style="fill:none;stroke:#000;stroke-width:0.13px;"/><path d="M7.063,16.719c0,0 1.767,1.766 3.367,1.683c1.601,-0.083 2.736,-1.683 2.736,-1.683" style="fill:none;stroke:#000;stroke-width:0.13px;"/></g></svg>