<?xml version="1.0" encoding="UTF-8" standalone="no"?><!DOCTYPE svg PUBLIC "-//W3C//DTD SVG 1.1//EN" "http://www.w3.org/Graphics/SVG/1.1/DTD/svg11.dtd"><svg width="100%" height="100%" viewBox="0 0 47 48" version="1.1" xmlns="http://www.w3.org/2000/svg" xmlns:xlink="http://www.w3.org/1999/xlink" xml:space="preserve" xmlns:serif="http://www.serif.com/" style="fill-rule:evenodd;clip-rule:evenodd;stroke-linecap:round;stroke-linejoin:round;stroke-miterlimit:1.5;"><rect id="Plan-de-travail1" serif:id="Plan de travail1" x="0" y="0" width="46.274" height="47.569" style="fill:none;"/><g><path d="M13.559,8.503c-1.308,0 -2.818,1.685 -3.599,2.567c-2.865,3.239 -3.908,8.281 -3.542,12.499c0.374,4.309 1.598,9.22 4.686,12.418c6.126,6.345 18.575,5.117 24.904,-0.298c5.539,-4.74 5.15,-12.216 2.601,-18.415c-0.936,-2.276 -2.046,-4.65 -3.943,-6.295c-4.633,-4.015 -14.857,-4.925 -20.175,-2.002c-2.124,1.167 -3.794,3.082 -5.139,5.061c-2.021,2.976 -3.229,6.659 -3.758,10.196c-0.617,4.123 -0.402,9.144 2.408,12.508c1.749,2.095 4.646,3.125 7.183,3.853c9.12,2.617 16.405,-2.275 21.806,-9.389c2.898,-3.817 5.19,-8.731 4.535,-13.643c-1.17,-8.777 -9.986,-11.127 -17.431,-11.403c-4.205,-0.156 -8.589,0.523 -11.524,3.779c-2.404,2.667 -3.859,6.107 -4.746,9.549c-1.331,5.161 -1.819,12.195 2.01,16.494c5.059,5.681 14.026,5.875 20.728,3.556c4.048,-1.402 6.868,-2.994 8.689,-7.029c2.859,-6.335 2.407,-14.276 -1.984,-19.765c-6.933,-8.666 -22.169,-10.667 -29.025,-0.811c-1.695,2.436 -2.604,5.787 -3.106,8.681c-0.847,4.882 -0.278,9.961 2.494,14.152c4.533,6.854 14.957,10.263 22.621,7.015c4.7,-1.991 7.819,-5.477 9.704,-10.152c1.125,-2.794 1.374,-5.671 1.212,-8.66" style="fill:none;stroke:#fed136;stroke-width:0.67px;"/><path d="M14.214,38.502c-4.85,-3.101 -8.066,-8.537 -8.066,-14.718c0,-9.644 7.83,-17.474 17.474,-17.474c9.645,0 17.475,7.83 17.475,17.474c0,6.439 -3.491,12.07 -8.684,15.097c-0.241,-0.801 -0.537,-1.542 -0.85,-2.111c-0.735,-1.334 -1.291,-2.28 -1.796,-2.304l0.004,-0.327c0.005,-0.338 -1.942,-1.132 -1.942,-1.132c0,0 0.439,5.181 -4.045,5.501c-4.53,0.323 -4.206,-5.663 -4.206,-5.663l-1.78,0.647l-0.166,1.706c-0.165,-0.743 -0.32,-1.22 -0.32,-1.22c-0.642,-0.885 -1.299,0.318 -2.265,2.265c-0.305,0.615 -0.596,1.406 -0.833,2.259Z" style="fill:#fed136;"/><path d="M24.917,6.148c0,0 -1.966,-0.502 -4.53,0.324c-2.009,0.647 -4.848,2.842 -6.196,4.444c-4.438,5.273 -0.78,8.188 -2.142,12.471c-0.711,2.235 -2.979,4.8 -1.495,7.217c1.367,2.226 2.749,-1.005 4.019,-1.049c0.924,-0.032 0.831,3.802 3.397,3.592c2.794,-0.229 3.538,-4.241 6.291,-4.194c2.368,0.041 4.096,3.884 6.362,3.288c1.709,-0.45 -0.108,-3.163 1.094,-3.903c1.52,-0.935 3.176,2.068 5.009,0.654c2.172,-1.675 -0.749,-3.756 -0.88,-5.546c-0.104,-1.419 -1.868,-16.489 -10.929,-17.298Z" style="fill:#fff;stroke:#000;stroke-width:0.67px;"/><path d="M21.843,27.506c0,0 1.057,3.362 -0.162,4.368c-1.219,1.006 -2.427,1.133 -2.427,1.133c0,0 0.802,5.586 3.398,5.663c5.501,0.161 5.015,-5.987 5.015,-5.987c0,0 -1.936,0.127 -2.265,-5.825c-0.329,-5.951 -3.559,0.648 -3.559,0.648Z" style="fill:#fff;"/><path d="M14.238,38.67c0.238,-0.853 0.504,-1.812 0.809,-2.427c0.966,-1.947 2.756,-3.635 3.398,-2.751c0,0 -0.004,2.331 0.162,3.074l-0.324,3.722c-1.045,-0.414 -3.111,-1.018 -4.045,-1.618Z" style="fill:#fff;"/><path d="M28.962,40.449c-0.106,-2.209 0.311,-5.73 0.323,-6.633c0.505,0.023 1.543,1.62 2.278,2.954c0.313,0.569 0.718,1.584 0.958,2.385c-1.132,0.485 -2.663,0.955 -3.559,1.294Z" style="fill:#fff;"/><path d="M15.696,15.09c0,3.144 0.12,7.616 2.194,10.161c3.249,3.988 10.139,2.144 12.05,-2.226c1.135,-2.593 0.521,-5.711 0.162,-8.401" style="fill:none;stroke:#000;stroke-width:0.67px;"/><path d="M21.52,17.517c-0.324,-0.205 -0.324,-0.205 -0.55,-0.265c-0.49,-0.132 -0.997,-0.174 -1.495,-0.136c-1.254,0.095 -2.309,0.91 -2.983,1.922" style="fill:none;stroke:#000;stroke-width:0.67px;"/><path d="M16.503,19.578c0,-0.179 0.324,0.809 1.684,1.169c1.031,0.273 1.979,-0.159 2.719,-0.842" style="fill:none;stroke:#000;stroke-width:0.67px;"/><path d="M24.271,17.679c-0.036,0 0.028,-0.073 0.032,-0.078c0.429,-0.523 1.086,-0.847 1.722,-1.042c1.392,-0.426 2.51,0.019 3.436,1.088" style="fill:none;stroke:#000;stroke-width:0.67px;"/><path d="M29.772,18.164c0,-0.229 -0.648,2.223 -4.525,1.866" style="fill:none;stroke:#000;stroke-width:0.67px;"/><path d="M22.004,15.694c0,-1.074 -3.235,-0.97 -5.501,0.648" style="fill:none;stroke:#000;stroke-width:0.67px;"/><path d="M23.947,15.252c-0.016,0 0.452,-0.353 0.512,-0.382c0.442,-0.215 0.932,-0.313 1.417,-0.375c1.416,-0.182 2.855,-0.025 4.148,0.602" style="fill:none;stroke:#000;stroke-width:0.67px;"/><circle cx="19.584" cy="19.06" r="1.456"/><circle cx="26.38" cy="18.574" r="1.456"/><path d="M15.801,19.739c-0.766,0.387 -1.024,1.055 -0.875,1.45c0.328,0.87 1.204,0.87 1.313,0.773" style="fill:none;stroke:#000;stroke-width:0.67px;"/><path d="M30.676,18.283c1.685,0 1.538,1.699 -0.096,1.942" style="fill:none;stroke:#000;stroke-width:0.67px;"/><path d="M15.371,18.121c0,0.49 0.6,0.942 0.964,1.136" style="fill:none;stroke:#000;stroke-width:0.67px;"/><path d="M29.771,17.811c0,0.117 0.339,0.061 0.369,0.051c0.41,-0.128 0.785,-0.358 1.168,-0.55" style="fill:none;stroke:#000;stroke-width:0.67px;"/><path d="M21.676,24.082c0.141,0.142 0.681,0.057 0.847,0.042c0.845,-0.072 1.691,-0.31 2.476,-0.622" style="fill:none;stroke:#000;stroke-width:0.67px;"/><path d="M21.959,27.601c0,0.826 0.142,1.676 0.191,2.502c0.031,0.534 0.087,1.121 -0.194,1.603c-0.334,0.573 -1.116,0.736 -1.701,0.913c-1.151,0.347 -2.343,0.62 -3.354,1.304c-1.52,1.028 -2.139,2.729 -2.591,4.429" style="fill:none;stroke:#000;stroke-width:0.67px;"/><path d="M25.478,27.318c0,1.091 0.25,2.303 0.519,3.353c0.114,0.445 0.234,1.035 0.568,1.377c0.451,0.46 1.234,0.589 1.786,0.898c1.024,0.572 1.945,1.39 2.626,2.344c0.831,1.163 0.958,2.164 1.221,3.541" style="fill:none;stroke:#000;stroke-width:0.67px;"/><path d="M19.739,33.007c0,0 -0.318,5.931 4.207,5.501c4.525,-0.43 3.883,-5.501 3.883,-5.501" style="fill:none;stroke:#000;stroke-width:0.67px;"/><path d="M30.383,12.258c-0.95,-0.036 -1.936,-0.42 -2.744,-0.92c-0.153,-0.095 -0.881,-0.56 -0.519,-0.81c0.628,-0.435 1.457,0.521 2.105,0.333c0.416,-0.122 0.175,-1.183 0.801,-0.961c0.701,0.249 0.075,1.896 0.6,2.429c0.434,0.44 2.804,0.86 2.6,1.624c-0.206,0.777 -0.971,-0.093 -1.369,-0.01c-0.371,0.078 -0.462,0.635 -0.862,0.689c-0.249,0.034 -0.304,-0.299 -0.315,-0.475c-0.038,-0.614 0.025,-1.209 -0.054,-1.828" style="fill:none;stroke:#fed136;stroke-width:0.67px;"/><path d="M17.636,39.964c0.335,-1.741 0.162,-6.472 0.162,-6.472l1.78,-0.647c0,0 -0.324,5.986 4.206,5.663c4.484,-0.32 4.045,-5.501 4.045,-5.501c0,0 1.947,0.794 1.942,1.132c0,0 -0.008,0.65 -0.004,0.327c-0.161,-0.011 -0.9,3.241 -0.376,5.809c-1.808,0.64 -3.748,0.983 -5.769,0.983c-1.988,0 -4.203,-0.677 -5.986,-1.294Z"/><path d="M17.632,35.198l0,0.006l0,-0.006l0,0Z"/></g></svg>